<svg width="560" height="52" viewBox="0 0 560 52" fill="none" xmlns="http://www.w3.org/2000/svg">
<path d="M26.2551 3.6V7.8H4.97514V19.784H22.3911V23.984H4.97514V40H0.495137V3.6H26.2551ZM41.7759 40.56C39.3866 40.56 37.1466 39.9813 35.0559 38.824C32.9652 37.6667 31.2666 36.0053 29.9599 33.84C28.6906 31.6373 28.0559 29.0427 28.0559 26.056C28.0559 23.0693 28.6906 20.4933 29.9599 18.328C31.2666 16.1253 32.9652 14.4267 35.0559 13.232C37.1466 12.0373 39.3866 11.44 41.7759 11.44C44.1652 11.44 46.3866 12.0373 48.4399 13.232C50.5306 14.4267 52.2106 16.1253 53.4799 18.328C54.7492 20.4933 55.3839 23.0693 55.3839 26.056C55.3839 29.0427 54.7492 31.6373 53.4799 33.84C52.2106 36.0053 50.5306 37.6667 48.4399 38.824C46.3866 39.9813 44.1652 40.56 41.7759 40.56ZM41.7759 36.36C43.3439 36.36 44.8186 35.968 46.1999 35.184C47.5812 34.4 48.7012 33.2427 49.5599 31.712C50.4559 30.144 50.9039 28.2587 50.9039 26.056C50.9039 23.8533 50.4559 21.9867 49.5599 20.456C48.7012 18.888 47.5812 17.6933 46.1999 16.872C44.8186 16.0507 43.3439 15.64 41.7759 15.64C40.2079 15.64 38.7146 16.0507 37.2959 16.872C35.9146 17.656 34.7759 18.832 33.8799 20.4C32.9839 21.9307 32.5359 23.816 32.5359 26.056C32.5359 28.2587 32.9652 30.144 33.8239 31.712C34.7199 33.2427 35.8772 34.4 37.2959 35.184C38.7146 35.968 40.2079 36.36 41.7759 36.36ZM61.6292 0.799997H66.1092V40H61.6292V0.799997ZM74.5354 0.799997H79.0154V40H74.5354V0.799997ZM99.0337 40.56C96.6444 40.56 94.4044 39.9813 92.3137 38.824C90.223 37.6667 88.5244 36.0053 87.2177 33.84C85.9484 31.6373 85.3137 29.0427 85.3137 26.056C85.3137 23.0693 85.9484 20.4933 87.2177 18.328C88.5244 16.1253 90.223 14.4267 92.3137 13.232C94.4044 12.0373 96.6444 11.44 99.0337 11.44C101.423 11.44 103.644 12.0373 105.698 13.232C107.788 14.4267 109.468 16.1253 110.738 18.328C112.007 20.4933 112.642 23.0693 112.642 26.056C112.642 29.0427 112.007 31.6373 110.738 33.84C109.468 36.0053 107.788 37.6667 105.698 38.824C103.644 39.9813 101.423 40.56 99.0337 40.56ZM99.0337 36.36C100.602 36.36 102.076 35.968 103.458 35.184C104.839 34.4 105.959 33.2427 106.818 31.712C107.714 30.144 108.162 28.2587 108.162 26.056C108.162 23.8533 107.714 21.9867 106.818 20.456C105.959 18.888 104.839 17.6933 103.458 16.872C102.076 16.0507 100.602 15.64 99.0337 15.64C97.4657 15.64 95.9724 16.0507 94.5537 16.872C93.1724 17.656 92.0337 18.832 91.1377 20.4C90.2417 21.9307 89.7937 23.816 89.7937 26.056C89.7937 28.2587 90.223 30.144 91.0817 31.712C91.9777 33.2427 93.135 34.4 94.5537 35.184C95.9724 35.968 97.4657 36.36 99.0337 36.36ZM145.619 35.912L144.499 35.856L151.051 12H155.923L147.355 40H143.155L134.867 15.472H135.987L127.699 40H123.499L114.987 12H119.859L126.299 35.856L125.179 35.912L132.739 12H138.171L145.619 35.912ZM172.468 12H176.948V40H172.468V12ZM186.58 11.44C188.073 11.44 189.417 11.664 190.612 12.112C191.806 12.56 192.814 13.2133 193.636 14.072C194.457 14.9307 195.092 15.976 195.54 17.208C195.988 18.4027 196.212 19.7653 196.212 21.296V40H191.732V22.416C191.732 20.2507 191.228 18.6267 190.22 17.544C189.212 16.4613 187.7 15.92 185.684 15.92C184.153 15.92 182.734 16.312 181.428 17.096C180.121 17.88 179.038 18.9627 178.18 20.344C177.358 21.688 176.854 23.256 176.668 25.048L176.612 21.8C176.798 20.232 177.172 18.8133 177.732 17.544C178.329 16.2747 179.057 15.192 179.916 14.296C180.812 13.3627 181.82 12.6533 182.94 12.168C184.097 11.6827 185.31 11.44 186.58 11.44ZM205.396 11.44C206.889 11.44 208.233 11.664 209.428 12.112C210.622 12.56 211.63 13.2133 212.452 14.072C213.273 14.9307 213.908 15.976 214.356 17.208C214.804 18.4027 215.028 19.7653 215.028 21.296V40H210.548V22.416C210.548 20.2507 210.044 18.6267 209.036 17.544C208.028 16.4613 206.516 15.92 204.5 15.92C202.969 15.92 201.55 16.312 200.244 17.096C198.937 17.88 197.854 18.9627 196.996 20.344C196.174 21.688 195.67 23.256 195.484 25.048L195.428 21.8C195.614 20.232 195.988 18.8133 196.548 17.544C197.145 16.2747 197.873 15.192 198.732 14.296C199.628 13.3627 200.636 12.6533 201.756 12.168C202.913 11.6827 204.126 11.44 205.396 11.44ZM219.221 12H224.037L234.061 38.88L230.141 40L219.221 12ZM245.261 12L229.637 51.2H224.765L231.541 36.08L240.501 12H245.261ZM500.265 40.56C498.211 40.56 496.531 40.0933 495.225 39.16C493.918 38.1893 492.891 36.9573 492.145 35.464C491.435 33.9333 490.931 32.3467 490.633 30.704C490.334 29.024 490.185 27.4747 490.185 26.056C490.185 24.04 490.315 22.1547 490.577 20.4C490.875 18.6453 491.379 17.096 492.089 15.752C492.798 14.408 493.806 13.3627 495.113 12.616C496.457 11.832 498.174 11.44 500.265 11.44C502.505 11.44 504.539 12.0747 506.369 13.344C508.198 14.6133 509.654 16.3493 510.737 18.552C511.857 20.7547 512.417 23.256 512.417 26.056C512.417 28.856 511.857 31.3573 510.737 33.56C509.617 35.7253 508.123 37.4427 506.257 38.712C504.427 39.944 502.43 40.56 500.265 40.56ZM499.145 36.304C500.862 36.304 502.374 35.8747 503.681 35.016C505.025 34.12 506.07 32.9067 506.817 31.376C507.563 29.808 507.937 28.0347 507.937 26.056C507.937 23.0693 507.171 20.6053 505.641 18.664C504.11 16.6853 501.945 15.696 499.145 15.696C497.502 15.696 496.046 16.144 494.777 17.04C493.507 17.8987 492.518 19.112 491.809 20.68C491.099 22.2107 490.745 24.0027 490.745 26.056C490.745 27.9227 491.043 29.64 491.641 31.208C492.275 32.7387 493.209 33.9707 494.441 34.904C495.673 35.8373 497.241 36.304 499.145 36.304ZM486.265 12H490.577L490.745 17.88V51.2H486.265V12ZM528.731 40.56C526.529 40.56 524.494 39.944 522.627 38.712C520.798 37.4427 519.323 35.7253 518.203 33.56C517.121 31.3573 516.579 28.856 516.579 26.056C516.579 23.256 517.139 20.7547 518.259 18.552C519.379 16.3493 520.891 14.6133 522.795 13.344C524.737 12.0747 526.902 11.44 529.291 11.44C531.905 11.44 533.883 12.112 535.227 13.456C536.609 14.7627 537.542 16.5173 538.027 18.72C538.55 20.9227 538.811 23.368 538.811 26.056C538.811 27.4747 538.662 29.024 538.363 30.704C538.065 32.3467 537.542 33.9333 536.795 35.464C536.086 36.9573 535.078 38.1893 533.771 39.16C532.465 40.0933 530.785 40.56 528.731 40.56ZM529.851 36.304C531.755 36.304 533.323 35.8373 534.555 34.904C535.825 33.9707 536.758 32.7387 537.355 31.208C537.953 29.64 538.251 27.9227 538.251 26.056C538.251 24.0027 537.934 22.2107 537.299 20.68C536.702 19.112 535.769 17.8987 534.499 17.04C533.267 16.144 531.718 15.696 529.851 15.696C527.051 15.696 524.886 16.6853 523.355 18.664C521.825 20.6053 521.059 23.0693 521.059 26.056C521.059 28.0347 521.433 29.808 522.179 31.376C522.963 32.9067 524.009 34.12 525.315 35.016C526.659 35.8747 528.171 36.304 529.851 36.304ZM538.251 12H542.731V40H538.643C538.643 40 538.606 39.664 538.531 38.992C538.494 38.32 538.438 37.536 538.363 36.64C538.289 35.744 538.251 34.9973 538.251 34.4V12ZM560.054 35.576C558.075 35.576 556.19 35.1093 554.398 34.176C552.643 33.2053 551.206 31.824 550.086 30.032C549.003 28.24 548.462 26.0933 548.462 23.592C548.462 21.0907 549.003 18.944 550.086 17.152C551.169 15.3227 552.587 13.9227 554.342 12.952C556.097 11.944 558.001 11.44 560.054 11.44C560.689 11.44 561.286 11.496 561.846 11.608C562.443 11.6827 563.003 11.8133 563.526 12H574.894V16.816C573.289 16.816 571.683 16.5173 570.078 15.92C568.51 15.3227 567.166 14.7067 566.046 14.072L565.822 13.848C567.129 14.5573 568.193 15.3973 569.014 16.368C569.873 17.3387 570.507 18.44 570.918 19.672C571.366 20.8667 571.59 22.1733 571.59 23.592C571.59 26.0933 571.049 28.24 569.966 30.032C568.921 31.824 567.521 33.2053 565.766 34.176C564.011 35.1093 562.107 35.576 560.054 35.576ZM568.286 51.2V49.968C568.286 47.9893 567.763 46.552 566.718 45.656C565.71 44.76 564.179 44.312 562.126 44.312H556.526C555.294 44.312 554.211 44.2 553.278 43.976C552.382 43.7893 551.635 43.4907 551.038 43.08C550.441 42.6693 549.993 42.1653 549.694 41.568C549.395 40.9707 549.246 40.2987 549.246 39.552C549.246 38.1333 549.675 37.0693 550.534 36.36C551.393 35.6133 552.457 35.1467 553.726 34.96C554.995 34.7733 556.209 34.7733 557.366 34.96L560.054 35.576C558.038 35.688 556.47 35.8933 555.35 36.192C554.267 36.4907 553.726 37.1253 553.726 38.096C553.726 38.656 553.931 39.1227 554.342 39.496C554.79 39.832 555.443 40 556.302 40H562.126C564.067 40 565.841 40.2613 567.446 40.784C569.051 41.344 570.339 42.2587 571.31 43.528C572.281 44.8347 572.766 46.608 572.766 48.848V51.2H568.286ZM560.054 31.376C561.286 31.376 562.425 31.0773 563.47 30.48C564.553 29.8827 565.43 29.0053 566.102 27.848C566.774 26.6907 567.11 25.272 567.11 23.592C567.11 21.912 566.774 20.4933 566.102 19.336C565.467 18.1413 564.609 17.2453 563.526 16.648C562.443 16.0133 561.286 15.696 560.054 15.696C558.822 15.696 557.665 16.0133 556.582 16.648C555.499 17.2453 554.622 18.1227 553.95 19.28C553.278 20.4373 552.942 21.8747 552.942 23.592C552.942 25.272 553.278 26.6907 553.95 27.848C554.622 29.0053 555.499 29.8827 556.582 30.48C557.665 31.0773 558.822 31.376 560.054 31.376ZM599.987 30.984H604.187C603.888 32.8133 603.216 34.456 602.171 35.912C601.163 37.3307 599.819 38.4693 598.139 39.328C596.496 40.1493 594.592 40.56 592.427 40.56C589.814 40.56 587.462 39.944 585.371 38.712C583.28 37.4427 581.619 35.7253 580.387 33.56C579.192 31.3573 578.595 28.856 578.595 26.056C578.595 23.256 579.174 20.7547 580.331 18.552C581.526 16.3493 583.15 14.6133 585.203 13.344C587.256 12.0747 589.571 11.44 592.147 11.44C594.872 11.44 597.168 12.056 599.035 13.288C600.939 14.4827 602.339 16.256 603.235 18.608C604.168 20.9227 604.542 23.7787 604.355 27.176H583.075C583.262 29.0053 583.766 30.6107 584.587 31.992C585.408 33.3733 586.491 34.456 587.835 35.24C589.179 35.9867 590.71 36.36 592.427 36.36C594.331 36.36 595.936 35.8747 597.243 34.904C598.587 33.896 599.502 32.5893 599.987 30.984ZM592.315 15.64C590 15.64 588.059 16.312 586.491 17.656C584.923 19 583.878 20.8293 583.355 23.144H599.763C599.614 20.68 598.811 18.8133 597.355 17.544C595.936 16.2747 594.256 15.64 592.315 15.64Z" fill="#707070"/>
<path d="M267.092 3.6V35.8H287.252V40H262.612V3.6H267.092ZM299.254 0.799997V6.232H293.43V0.799997H299.254ZM294.102 12H298.582V40H294.102V12ZM306.233 12H310.713V40H306.233V12ZM320.345 11.44C321.839 11.44 323.183 11.664 324.377 12.112C325.572 12.56 326.58 13.2133 327.401 14.072C328.223 14.9307 328.857 15.976 329.305 17.208C329.753 18.4027 329.977 19.7653 329.977 21.296V40H325.497V22.416C325.497 20.2507 324.993 18.6267 323.985 17.544C322.977 16.4613 321.465 15.92 319.449 15.92C317.919 15.92 316.5 16.312 315.193 17.096C313.887 17.88 312.804 18.9627 311.945 20.344C311.124 21.688 310.62 23.256 310.433 25.048L310.377 21.8C310.564 20.232 310.937 18.8133 311.497 17.544C312.095 16.2747 312.823 15.192 313.681 14.296C314.577 13.3627 315.585 12.6533 316.705 12.168C317.863 11.6827 319.076 11.44 320.345 11.44ZM337.913 0.799997H342.393V40H337.913V0.799997ZM361.097 12L347.097 25.832L347.209 22.92L362.049 40H356.337L342.505 24.376L354.713 12H361.097ZM384.956 30.984H389.156C388.857 32.8133 388.185 34.456 387.14 35.912C386.132 37.3307 384.788 38.4693 383.108 39.328C381.465 40.1493 379.561 40.56 377.396 40.56C374.782 40.56 372.43 39.944 370.34 38.712C368.249 37.4427 366.588 35.7253 365.356 33.56C364.161 31.3573 363.564 28.856 363.564 26.056C363.564 23.256 364.142 20.7547 365.3 18.552C366.494 16.3493 368.118 14.6133 370.172 13.344C372.225 12.0747 374.54 11.44 377.116 11.44C379.841 11.44 382.137 12.056 384.004 13.288C385.908 14.4827 387.308 16.256 388.204 18.608C389.137 20.9227 389.51 23.7787 389.324 27.176H368.044C368.23 29.0053 368.734 30.6107 369.556 31.992C370.377 33.3733 371.46 34.456 372.804 35.24C374.148 35.9867 375.678 36.36 377.396 36.36C379.3 36.36 380.905 35.8747 382.212 34.904C383.556 33.896 384.47 32.5893 384.956 30.984ZM377.284 15.64C374.969 15.64 373.028 16.312 371.46 17.656C369.892 19 368.846 20.8293 368.324 23.144H384.732C384.582 20.68 383.78 18.8133 382.324 17.544C380.905 16.2747 379.225 15.64 377.284 15.64ZM405.684 40.56C403.444 40.56 401.391 39.944 399.524 38.712C397.695 37.4427 396.239 35.7253 395.156 33.56C394.074 31.3573 393.532 28.856 393.532 26.056C393.532 23.256 394.055 20.7547 395.1 18.552C396.146 16.3493 397.583 14.6133 399.412 13.344C401.242 12.0747 403.332 11.44 405.684 11.44C407.775 11.44 409.474 11.832 410.78 12.616C412.124 13.3627 413.151 14.408 413.86 15.752C414.57 17.096 415.055 18.6453 415.316 20.4C415.615 22.1547 415.764 24.04 415.764 26.056C415.764 27.4747 415.615 29.024 415.316 30.704C415.018 32.3467 414.495 33.9333 413.748 35.464C413.039 36.9573 412.031 38.1893 410.724 39.16C409.418 40.0933 407.738 40.56 405.684 40.56ZM406.804 36.304C408.708 36.304 410.276 35.8373 411.508 34.904C412.778 33.9707 413.711 32.7387 414.308 31.208C414.906 29.64 415.204 27.9227 415.204 26.056C415.204 24.0027 414.887 22.2107 414.252 20.68C413.655 19.112 412.722 17.8987 411.452 17.04C410.22 16.144 408.671 15.696 406.804 15.696C404.004 15.696 401.839 16.6853 400.308 18.664C398.778 20.6053 398.012 23.0693 398.012 26.056C398.012 28.0347 398.386 29.808 399.132 31.376C399.916 32.9067 400.962 34.12 402.268 35.016C403.612 35.8747 405.124 36.304 406.804 36.304ZM415.204 0.799997H419.684V40H415.596C415.522 39.1787 415.428 38.208 415.316 37.088C415.242 35.968 415.204 35.072 415.204 34.4V0.799997ZM429.764 3.6H434.244V40H429.764V3.6ZM443.499 12H447.979V40H443.499V12ZM457.611 11.44C459.104 11.44 460.448 11.664 461.643 12.112C462.838 12.56 463.846 13.2133 464.667 14.072C465.488 14.9307 466.123 15.976 466.571 17.208C467.019 18.4027 467.243 19.7653 467.243 21.296V40H462.763V22.416C462.763 20.2507 462.259 18.6267 461.251 17.544C460.243 16.4613 458.731 15.92 456.715 15.92C455.184 15.92 453.766 16.312 452.459 17.096C451.152 17.88 450.07 18.9627 449.211 20.344C448.39 21.688 447.886 23.256 447.699 25.048L447.643 21.8C447.83 20.232 448.203 18.8133 448.763 17.544C449.36 16.2747 450.088 15.192 450.947 14.296C451.843 13.3627 452.851 12.6533 453.971 12.168C455.128 11.6827 456.342 11.44 457.611 11.44Z" fill="white"/>
</svg>
