<svg width="681" height="60" viewBox="0 0 681 60" fill="none" xmlns="http://www.w3.org/2000/svg">
<path d="M99.2551 11.6V15.8H77.9751V27.784H95.3911V31.984H77.9751V48H73.4951V11.6H99.2551ZM114.776 48.56C112.387 48.56 110.147 47.9813 108.056 46.824C105.965 45.6667 104.267 44.0053 102.96 41.84C101.691 39.6373 101.056 37.0427 101.056 34.056C101.056 31.0693 101.691 28.4933 102.96 26.328C104.267 24.1253 105.965 22.4267 108.056 21.232C110.147 20.0373 112.387 19.44 114.776 19.44C117.165 19.44 119.387 20.0373 121.44 21.232C123.531 22.4267 125.211 24.1253 126.48 26.328C127.749 28.4933 128.384 31.0693 128.384 34.056C128.384 37.0427 127.749 39.6373 126.48 41.84C125.211 44.0053 123.531 45.6667 121.44 46.824C119.387 47.9813 117.165 48.56 114.776 48.56ZM114.776 44.36C116.344 44.36 117.819 43.968 119.2 43.184C120.581 42.4 121.701 41.2427 122.56 39.712C123.456 38.144 123.904 36.2587 123.904 34.056C123.904 31.8533 123.456 29.9867 122.56 28.456C121.701 26.888 120.581 25.6933 119.2 24.872C117.819 24.0507 116.344 23.64 114.776 23.64C113.208 23.64 111.715 24.0507 110.296 24.872C108.915 25.656 107.776 26.832 106.88 28.4C105.984 29.9307 105.536 31.816 105.536 34.056C105.536 36.2587 105.965 38.144 106.824 39.712C107.72 41.2427 108.877 42.4 110.296 43.184C111.715 43.968 113.208 44.36 114.776 44.36ZM134.629 8.8H139.109V48H134.629V8.8ZM147.535 8.8H152.015V48H147.535V8.8ZM172.034 48.56C169.644 48.56 167.404 47.9813 165.314 46.824C163.223 45.6667 161.524 44.0053 160.218 41.84C158.948 39.6373 158.314 37.0427 158.314 34.056C158.314 31.0693 158.948 28.4933 160.218 26.328C161.524 24.1253 163.223 22.4267 165.314 21.232C167.404 20.0373 169.644 19.44 172.034 19.44C174.423 19.44 176.644 20.0373 178.698 21.232C180.788 22.4267 182.468 24.1253 183.738 26.328C185.007 28.4933 185.642 31.0693 185.642 34.056C185.642 37.0427 185.007 39.6373 183.738 41.84C182.468 44.0053 180.788 45.6667 178.698 46.824C176.644 47.9813 174.423 48.56 172.034 48.56ZM172.034 44.36C173.602 44.36 175.076 43.968 176.458 43.184C177.839 42.4 178.959 41.2427 179.818 39.712C180.714 38.144 181.162 36.2587 181.162 34.056C181.162 31.8533 180.714 29.9867 179.818 28.456C178.959 26.888 177.839 25.6933 176.458 24.872C175.076 24.0507 173.602 23.64 172.034 23.64C170.466 23.64 168.972 24.0507 167.554 24.872C166.172 25.656 165.034 26.832 164.138 28.4C163.242 29.9307 162.794 31.816 162.794 34.056C162.794 36.2587 163.223 38.144 164.082 39.712C164.978 41.2427 166.135 42.4 167.554 43.184C168.972 43.968 170.466 44.36 172.034 44.36ZM218.619 43.912L217.499 43.856L224.051 20H228.923L220.355 48H216.155L207.867 23.472H208.987L200.699 48H196.499L187.987 20H192.859L199.299 43.856L198.179 43.912L205.739 20H211.171L218.619 43.912ZM245.468 20H249.948V48H245.468V20ZM259.58 19.44C261.073 19.44 262.417 19.664 263.612 20.112C264.806 20.56 265.814 21.2133 266.636 22.072C267.457 22.9307 268.092 23.976 268.54 25.208C268.988 26.4027 269.212 27.7653 269.212 29.296V48H264.732V30.416C264.732 28.2507 264.228 26.6267 263.22 25.544C262.212 24.4613 260.7 23.92 258.684 23.92C257.153 23.92 255.734 24.312 254.428 25.096C253.121 25.88 252.038 26.9627 251.18 28.344C250.358 29.688 249.854 31.256 249.668 33.048L249.612 29.8C249.798 28.232 250.172 26.8133 250.732 25.544C251.329 24.2747 252.057 23.192 252.916 22.296C253.812 21.3627 254.82 20.6533 255.94 20.168C257.097 19.6827 258.31 19.44 259.58 19.44ZM278.396 19.44C279.889 19.44 281.233 19.664 282.428 20.112C283.622 20.56 284.63 21.2133 285.452 22.072C286.273 22.9307 286.908 23.976 287.356 25.208C287.804 26.4027 288.028 27.7653 288.028 29.296V48H283.548V30.416C283.548 28.2507 283.044 26.6267 282.036 25.544C281.028 24.4613 279.516 23.92 277.5 23.92C275.969 23.92 274.55 24.312 273.244 25.096C271.937 25.88 270.854 26.9627 269.996 28.344C269.174 29.688 268.67 31.256 268.484 33.048L268.428 29.8C268.614 28.232 268.988 26.8133 269.548 25.544C270.145 24.2747 270.873 23.192 271.732 22.296C272.628 21.3627 273.636 20.6533 274.756 20.168C275.913 19.6827 277.126 19.44 278.396 19.44ZM292.221 20H297.037L307.061 46.88L303.141 48L292.221 20ZM318.261 20L302.637 59.2H297.765L304.541 44.08L313.501 20H318.261ZM573.265 48.56C571.211 48.56 569.531 48.0933 568.225 47.16C566.918 46.1893 565.891 44.9573 565.145 43.464C564.435 41.9333 563.931 40.3467 563.633 38.704C563.334 37.024 563.185 35.4747 563.185 34.056C563.185 32.04 563.315 30.1547 563.577 28.4C563.875 26.6453 564.379 25.096 565.089 23.752C565.798 22.408 566.806 21.3627 568.113 20.616C569.457 19.832 571.174 19.44 573.265 19.44C575.505 19.44 577.539 20.0747 579.369 21.344C581.198 22.6133 582.654 24.3493 583.737 26.552C584.857 28.7547 585.417 31.256 585.417 34.056C585.417 36.856 584.857 39.3573 583.737 41.56C582.617 43.7253 581.123 45.4427 579.257 46.712C577.427 47.944 575.43 48.56 573.265 48.56ZM572.145 44.304C573.862 44.304 575.374 43.8747 576.681 43.016C578.025 42.12 579.07 40.9067 579.817 39.376C580.563 37.808 580.937 36.0347 580.937 34.056C580.937 31.0693 580.171 28.6053 578.641 26.664C577.11 24.6853 574.945 23.696 572.145 23.696C570.502 23.696 569.046 24.144 567.777 25.04C566.507 25.8987 565.518 27.112 564.809 28.68C564.099 30.2107 563.745 32.0027 563.745 34.056C563.745 35.9227 564.043 37.64 564.641 39.208C565.275 40.7387 566.209 41.9707 567.441 42.904C568.673 43.8373 570.241 44.304 572.145 44.304ZM559.265 20H563.577L563.745 25.88V59.2H559.265V20ZM601.731 48.56C599.529 48.56 597.494 47.944 595.627 46.712C593.798 45.4427 592.323 43.7253 591.203 41.56C590.121 39.3573 589.579 36.856 589.579 34.056C589.579 31.256 590.139 28.7547 591.259 26.552C592.379 24.3493 593.891 22.6133 595.795 21.344C597.737 20.0747 599.902 19.44 602.291 19.44C604.905 19.44 606.883 20.112 608.227 21.456C609.609 22.7627 610.542 24.5173 611.027 26.72C611.55 28.9227 611.811 31.368 611.811 34.056C611.811 35.4747 611.662 37.024 611.363 38.704C611.065 40.3467 610.542 41.9333 609.795 43.464C609.086 44.9573 608.078 46.1893 606.771 47.16C605.465 48.0933 603.785 48.56 601.731 48.56ZM602.851 44.304C604.755 44.304 606.323 43.8373 607.555 42.904C608.825 41.9707 609.758 40.7387 610.355 39.208C610.953 37.64 611.251 35.9227 611.251 34.056C611.251 32.0027 610.934 30.2107 610.299 28.68C609.702 27.112 608.769 25.8987 607.499 25.04C606.267 24.144 604.718 23.696 602.851 23.696C600.051 23.696 597.886 24.6853 596.355 26.664C594.825 28.6053 594.059 31.0693 594.059 34.056C594.059 36.0347 594.433 37.808 595.179 39.376C595.963 40.9067 597.009 42.12 598.315 43.016C599.659 43.8747 601.171 44.304 602.851 44.304ZM611.251 20H615.731V48H611.643C611.643 48 611.606 47.664 611.531 46.992C611.494 46.32 611.438 45.536 611.363 44.64C611.289 43.744 611.251 42.9973 611.251 42.4V20ZM633.054 43.576C631.075 43.576 629.19 43.1093 627.398 42.176C625.643 41.2053 624.206 39.824 623.086 38.032C622.003 36.24 621.462 34.0933 621.462 31.592C621.462 29.0907 622.003 26.944 623.086 25.152C624.169 23.3227 625.587 21.9227 627.342 20.952C629.097 19.944 631.001 19.44 633.054 19.44C633.689 19.44 634.286 19.496 634.846 19.608C635.443 19.6827 636.003 19.8133 636.526 20H647.894V24.816C646.289 24.816 644.683 24.5173 643.078 23.92C641.51 23.3227 640.166 22.7067 639.046 22.072L638.822 21.848C640.129 22.5573 641.193 23.3973 642.014 24.368C642.873 25.3387 643.507 26.44 643.918 27.672C644.366 28.8667 644.59 30.1733 644.59 31.592C644.59 34.0933 644.049 36.24 642.966 38.032C641.921 39.824 640.521 41.2053 638.766 42.176C637.011 43.1093 635.107 43.576 633.054 43.576ZM641.286 59.2V57.968C641.286 55.9893 640.763 54.552 639.718 53.656C638.71 52.76 637.179 52.312 635.126 52.312H629.526C628.294 52.312 627.211 52.2 626.278 51.976C625.382 51.7893 624.635 51.4907 624.038 51.08C623.441 50.6693 622.993 50.1653 622.694 49.568C622.395 48.9707 622.246 48.2987 622.246 47.552C622.246 46.1333 622.675 45.0693 623.534 44.36C624.393 43.6133 625.457 43.1467 626.726 42.96C627.995 42.7733 629.209 42.7733 630.366 42.96L633.054 43.576C631.038 43.688 629.47 43.8933 628.35 44.192C627.267 44.4907 626.726 45.1253 626.726 46.096C626.726 46.656 626.931 47.1227 627.342 47.496C627.79 47.832 628.443 48 629.302 48H635.126C637.067 48 638.841 48.2613 640.446 48.784C642.051 49.344 643.339 50.2587 644.31 51.528C645.281 52.8347 645.766 54.608 645.766 56.848V59.2H641.286ZM633.054 39.376C634.286 39.376 635.425 39.0773 636.47 38.48C637.553 37.8827 638.43 37.0053 639.102 35.848C639.774 34.6907 640.11 33.272 640.11 31.592C640.11 29.912 639.774 28.4933 639.102 27.336C638.467 26.1413 637.609 25.2453 636.526 24.648C635.443 24.0133 634.286 23.696 633.054 23.696C631.822 23.696 630.665 24.0133 629.582 24.648C628.499 25.2453 627.622 26.1227 626.95 27.28C626.278 28.4373 625.942 29.8747 625.942 31.592C625.942 33.272 626.278 34.6907 626.95 35.848C627.622 37.0053 628.499 37.8827 629.582 38.48C630.665 39.0773 631.822 39.376 633.054 39.376ZM672.987 38.984H677.187C676.888 40.8133 676.216 42.456 675.171 43.912C674.163 45.3307 672.819 46.4693 671.139 47.328C669.496 48.1493 667.592 48.56 665.427 48.56C662.814 48.56 660.462 47.944 658.371 46.712C656.28 45.4427 654.619 43.7253 653.387 41.56C652.192 39.3573 651.595 36.856 651.595 34.056C651.595 31.256 652.174 28.7547 653.331 26.552C654.526 24.3493 656.15 22.6133 658.203 21.344C660.256 20.0747 662.571 19.44 665.147 19.44C667.872 19.44 670.168 20.056 672.035 21.288C673.939 22.4827 675.339 24.256 676.235 26.608C677.168 28.9227 677.542 31.7787 677.355 35.176H656.075C656.262 37.0053 656.766 38.6107 657.587 39.992C658.408 41.3733 659.491 42.456 660.835 43.24C662.179 43.9867 663.71 44.36 665.427 44.36C667.331 44.36 668.936 43.8747 670.243 42.904C671.587 41.896 672.502 40.5893 672.987 38.984ZM665.315 23.64C663 23.64 661.059 24.312 659.491 25.656C657.923 27 656.878 28.8293 656.355 31.144H672.763C672.614 28.68 671.811 26.8133 670.355 25.544C668.936 24.2747 667.256 23.64 665.315 23.64Z" fill="#707070"/>
<path d="M340.092 11.6V43.8H360.252V48H335.612V11.6H340.092ZM372.254 8.8V14.232H366.43V8.8H372.254ZM367.102 20H371.582V48H367.102V20ZM379.233 20H383.713V48H379.233V20ZM393.345 19.44C394.839 19.44 396.183 19.664 397.377 20.112C398.572 20.56 399.58 21.2133 400.401 22.072C401.223 22.9307 401.857 23.976 402.305 25.208C402.753 26.4027 402.977 27.7653 402.977 29.296V48H398.497V30.416C398.497 28.2507 397.993 26.6267 396.985 25.544C395.977 24.4613 394.465 23.92 392.449 23.92C390.919 23.92 389.5 24.312 388.193 25.096C386.887 25.88 385.804 26.9627 384.945 28.344C384.124 29.688 383.62 31.256 383.433 33.048L383.377 29.8C383.564 28.232 383.937 26.8133 384.497 25.544C385.095 24.2747 385.823 23.192 386.681 22.296C387.577 21.3627 388.585 20.6533 389.705 20.168C390.863 19.6827 392.076 19.44 393.345 19.44ZM410.913 8.8H415.393V48H410.913V8.8ZM434.097 20L420.097 33.832L420.209 30.92L435.049 48H429.337L415.505 32.376L427.713 20H434.097ZM457.956 38.984H462.156C461.857 40.8133 461.185 42.456 460.14 43.912C459.132 45.3307 457.788 46.4693 456.108 47.328C454.465 48.1493 452.561 48.56 450.396 48.56C447.782 48.56 445.43 47.944 443.34 46.712C441.249 45.4427 439.588 43.7253 438.356 41.56C437.161 39.3573 436.564 36.856 436.564 34.056C436.564 31.256 437.142 28.7547 438.3 26.552C439.494 24.3493 441.118 22.6133 443.172 21.344C445.225 20.0747 447.54 19.44 450.116 19.44C452.841 19.44 455.137 20.056 457.004 21.288C458.908 22.4827 460.308 24.256 461.204 26.608C462.137 28.9227 462.51 31.7787 462.324 35.176H441.044C441.23 37.0053 441.734 38.6107 442.556 39.992C443.377 41.3733 444.46 42.456 445.804 43.24C447.148 43.9867 448.678 44.36 450.396 44.36C452.3 44.36 453.905 43.8747 455.212 42.904C456.556 41.896 457.47 40.5893 457.956 38.984ZM450.284 23.64C447.969 23.64 446.028 24.312 444.46 25.656C442.892 27 441.846 28.8293 441.324 31.144H457.732C457.582 28.68 456.78 26.8133 455.324 25.544C453.905 24.2747 452.225 23.64 450.284 23.64ZM478.684 48.56C476.444 48.56 474.391 47.944 472.524 46.712C470.695 45.4427 469.239 43.7253 468.156 41.56C467.074 39.3573 466.532 36.856 466.532 34.056C466.532 31.256 467.055 28.7547 468.1 26.552C469.146 24.3493 470.583 22.6133 472.412 21.344C474.242 20.0747 476.332 19.44 478.684 19.44C480.775 19.44 482.474 19.832 483.78 20.616C485.124 21.3627 486.151 22.408 486.86 23.752C487.57 25.096 488.055 26.6453 488.316 28.4C488.615 30.1547 488.764 32.04 488.764 34.056C488.764 35.4747 488.615 37.024 488.316 38.704C488.018 40.3467 487.495 41.9333 486.748 43.464C486.039 44.9573 485.031 46.1893 483.724 47.16C482.418 48.0933 480.738 48.56 478.684 48.56ZM479.804 44.304C481.708 44.304 483.276 43.8373 484.508 42.904C485.778 41.9707 486.711 40.7387 487.308 39.208C487.906 37.64 488.204 35.9227 488.204 34.056C488.204 32.0027 487.887 30.2107 487.252 28.68C486.655 27.112 485.722 25.8987 484.452 25.04C483.22 24.144 481.671 23.696 479.804 23.696C477.004 23.696 474.839 24.6853 473.308 26.664C471.778 28.6053 471.012 31.0693 471.012 34.056C471.012 36.0347 471.386 37.808 472.132 39.376C472.916 40.9067 473.962 42.12 475.268 43.016C476.612 43.8747 478.124 44.304 479.804 44.304ZM488.204 8.8H492.684V48H488.596C488.522 47.1787 488.428 46.208 488.316 45.088C488.242 43.968 488.204 43.072 488.204 42.4V8.8ZM502.764 11.6H507.244V48H502.764V11.6ZM516.499 20H520.979V48H516.499V20ZM530.611 19.44C532.104 19.44 533.448 19.664 534.643 20.112C535.838 20.56 536.846 21.2133 537.667 22.072C538.488 22.9307 539.123 23.976 539.571 25.208C540.019 26.4027 540.243 27.7653 540.243 29.296V48H535.763V30.416C535.763 28.2507 535.259 26.6267 534.251 25.544C533.243 24.4613 531.731 23.92 529.715 23.92C528.184 23.92 526.766 24.312 525.459 25.096C524.152 25.88 523.07 26.9627 522.211 28.344C521.39 29.688 520.886 31.256 520.699 33.048L520.643 29.8C520.83 28.232 521.203 26.8133 521.763 25.544C522.36 24.2747 523.088 23.192 523.947 22.296C524.843 21.3627 525.851 20.6533 526.971 20.168C528.128 19.6827 529.342 19.44 530.611 19.44Z" fill="white"/>
<path d="M28.6425 26.8136V26.7402C28.6273 26.765 28.6111 26.7898 28.5949 26.8136H28.6425Z" fill="white"/>
<path d="M46.9248 5.44531H6.80558C4.88534 5.44531 3.328 6.9655 3.328 8.83906V49.4279C3.328 51.3005 4.88534 52.8207 6.80558 52.8207H46.9248C48.8479 52.8207 50.4052 51.2995 50.4052 49.4279V8.83906C50.4052 6.96455 48.847 5.44531 46.9248 5.44531ZM17.5974 45.1045H10.487V23.7123H17.5974V45.1045ZM14.0427 20.7901H13.995C11.61 20.7901 10.0669 19.147 10.0669 17.0944C10.0669 14.996 11.6576 13.3987 14.0893 13.3987C16.522 13.3987 18.0184 14.996 18.066 17.0944C18.066 19.147 16.5211 20.7901 14.0427 20.7901ZM43.2377 45.1045H36.1273V33.6574C36.1273 30.7827 35.0986 28.8206 32.5259 28.8206C30.5618 28.8206 29.3922 30.1436 28.8769 31.4219C28.6892 31.8781 28.6435 32.5163 28.6435 33.1563V45.1035H21.5331C21.5331 45.1035 21.6265 25.7164 21.5331 23.7114H28.6435V26.7394C29.5884 25.282 31.2781 23.2066 35.0529 23.2066C39.7306 23.2066 43.2386 26.265 43.2386 32.8363L43.2377 45.1045Z" fill="white"/>
</svg>
