<svg width="1444" height="651" viewBox="0 0 1444 651" fill="none" xmlns="http://www.w3.org/2000/svg">
<path d="M60.9995 650.038C135.388 463.632 326 21.0232 529.611 195.36C842.584 463.336 -170.003 447.085 26 195.36C175 4.00011 564.703 -98.872 1053.5 142C1187.06 207.817 1347.55 254.159 1443 282" stroke="#F4F4F4" stroke-dasharray="12 12"/>
<g clip-path="url(#clip0_2002_124)">
<path d="M527.025 184.611C523.124 185.074 520.672 187.689 520.466 191.607C520.438 192.151 520.856 192.615 521.401 192.643C521.945 192.672 522.41 192.254 522.439 191.71C522.595 188.745 524.306 186.92 527.258 186.57C527.498 186.541 527.708 186.428 527.862 186.265C528.054 186.059 528.157 185.774 528.122 185.474C528.057 184.933 527.566 184.546 527.025 184.611Z" fill="#F91A68"/>
<path d="M514.987 179.918C514.087 180.878 513.665 182.178 513.828 183.482L514.019 185.007C514.755 190.886 517.698 196.178 522.308 199.907L525.107 202.172L523.032 207.676L522.732 207.395C521.838 206.559 520.429 206.605 519.591 207.499L517.997 209.198C517.16 210.092 517.206 211.499 518.101 212.335L520.449 214.531L519.452 217.177L518.775 216.544C517.881 215.708 516.472 215.754 515.634 216.647L514.041 218.347C513.204 219.241 513.25 220.648 514.144 221.484L516.868 224.032L515.173 228.531C514.369 230.663 514.926 233.047 516.592 234.605L519.647 237.462C520.296 238.068 521.174 238.363 522.058 238.27C522.942 238.177 523.74 237.706 524.248 236.978L540.073 214.282L548.863 221.394C549.287 221.737 549.909 221.672 550.252 221.249C550.408 221.057 550.48 220.825 550.472 220.596C550.463 220.32 550.338 220.049 550.107 219.862L540.491 212.082L540.491 212.081L534.812 207.486L523.551 198.375C519.34 194.968 516.651 190.134 515.979 184.763L515.788 183.238C515.698 182.515 515.931 181.797 516.429 181.267C516.927 180.736 517.629 180.455 518.356 180.498L519.892 180.588C523.452 180.796 526.92 181.921 529.923 183.84C530.383 184.134 530.994 184 531.288 183.542C531.582 183.083 531.448 182.473 530.988 182.179C527.701 180.078 523.904 178.846 520.008 178.619L518.472 178.529C517.157 178.452 515.887 178.958 514.987 179.918ZM519.451 210.895C519.351 210.803 519.346 210.646 519.439 210.547L521.033 208.847C521.126 208.748 521.283 208.742 521.382 208.835L522.279 209.674L521.973 210.486L521.202 212.533L519.451 210.895ZM515.494 220.044C515.395 219.951 515.389 219.795 515.483 219.696L517.076 217.996C517.169 217.897 517.326 217.891 517.425 217.984L518.699 219.175L517.621 222.033L515.494 220.044ZM538.534 213.036L522.627 235.85C522.444 236.112 522.169 236.275 521.851 236.308C521.533 236.342 521.23 236.24 520.997 236.022L517.942 233.165C517.22 232.49 516.819 231.576 516.788 230.631C516.773 230.162 516.849 229.685 517.022 229.225L526.724 203.481L538.534 213.036Z" fill="#F91A68"/>
<path d="M553.872 175.857L552.278 177.557C551.441 178.45 551.487 179.857 552.381 180.694L553.224 181.482L550.247 182.83L548.151 180.87C547.256 180.034 545.847 180.08 545.01 180.974L543.416 182.674C542.579 183.567 542.626 184.974 543.52 185.81L543.568 185.855L537.814 188.462L535.439 185.899C535.263 185.71 535.083 185.521 534.902 185.339C534.518 184.951 533.892 184.948 533.505 185.332C533.117 185.715 533.114 186.339 533.498 186.726C533.664 186.894 533.829 187.066 533.989 187.239L559.917 215.219C561.272 216.682 562.553 218.209 563.756 219.794C565.417 221.983 566.942 224.303 568.289 226.691C568.289 226.691 568.289 226.692 568.29 226.692C568.638 227.309 568.975 227.932 569.302 228.561C569.701 229.33 569.428 230.047 569.039 230.462C568.65 230.876 567.952 231.196 567.157 230.849C566.465 230.546 565.779 230.229 565.098 229.902C564.843 229.779 564.589 229.655 564.335 229.528C564.278 229.499 564.221 229.47 564.164 229.441C563.915 229.316 563.667 229.19 563.419 229.061C563.367 229.034 563.316 229.006 563.264 228.979C563.011 228.847 562.759 228.713 562.508 228.577C562.461 228.551 562.415 228.526 562.369 228.5C562.114 228.362 561.861 228.221 561.608 228.079C561.562 228.053 561.517 228.027 561.471 228.001C561.22 227.859 560.971 227.715 560.723 227.569C560.672 227.54 560.622 227.51 560.571 227.48C560.331 227.338 560.091 227.195 559.853 227.05C559.794 227.014 559.735 226.978 559.676 226.942C559.448 226.802 559.221 226.661 558.996 226.518C558.929 226.476 558.862 226.433 558.795 226.391C558.577 226.251 558.359 226.111 558.143 225.969C556.605 224.962 555.112 223.886 553.671 222.743C553.243 222.404 552.622 222.475 552.283 222.902C551.944 223.328 552.015 223.948 552.442 224.287C553.681 225.27 554.957 226.203 556.264 227.089L552.52 236.13C551.814 237.836 552.246 239.829 553.595 241.09L555.163 242.556C555.56 242.927 556.098 243.108 556.639 243.052C557.18 242.996 557.669 242.709 557.981 242.265L565.126 232.097C565.538 232.287 565.95 232.475 566.366 232.656C567.798 233.281 569.413 232.949 570.481 231.81C571.162 231.083 571.501 230.156 571.47 229.22C571.452 228.689 571.316 228.155 571.055 227.653C570.847 227.251 570.632 226.852 570.415 226.455L580.103 218.665C580.527 218.325 580.782 217.818 580.802 217.276C580.804 217.232 580.804 217.188 580.802 217.144C580.786 216.649 580.574 216.179 580.209 215.838L578.641 214.372C577.292 213.11 575.273 212.811 573.615 213.627L564.83 217.952C563.735 216.548 562.579 215.189 561.367 213.88L550.943 202.631L572.78 185.204C573.475 184.65 573.893 183.824 573.928 182.937C573.93 182.863 573.931 182.789 573.928 182.716C573.902 181.909 573.556 181.143 572.962 180.587L569.906 177.73C568.241 176.173 565.822 175.775 563.745 176.716L559.903 178.456L557.012 175.753C556.118 174.917 554.709 174.964 553.872 175.857ZM556.43 241.038L554.945 239.65C554.193 238.946 553.952 237.835 554.346 236.884L557.946 228.19C557.974 228.207 558.002 228.224 558.03 228.242C558.191 228.344 558.354 228.444 558.516 228.545C558.595 228.594 558.675 228.642 558.754 228.691C559.313 229.032 559.877 229.365 560.447 229.688C560.518 229.729 560.589 229.769 560.66 229.809C560.83 229.905 561 230 561.17 230.094C561.259 230.143 561.347 230.191 561.436 230.239C561.602 230.33 561.768 230.42 561.936 230.51C562.021 230.555 562.106 230.599 562.192 230.645C562.471 230.792 562.752 230.937 563.034 231.081C563.13 231.13 563.227 231.18 563.323 231.228L556.43 241.038ZM574.489 215.396C575.413 214.941 576.539 215.108 577.291 215.811L578.776 217.2L569.429 224.715C569.339 224.563 569.248 224.412 569.157 224.26C569.027 224.043 568.896 223.828 568.763 223.613C568.701 223.512 568.638 223.41 568.575 223.309C568.474 223.147 568.372 222.986 568.27 222.825C568.219 222.745 568.167 222.665 568.115 222.584C567.759 222.031 567.393 221.483 567.02 220.94C566.971 220.869 566.922 220.798 566.873 220.728C566.756 220.56 566.639 220.393 566.521 220.227C566.474 220.16 566.426 220.093 566.378 220.027C566.266 219.87 566.154 219.712 566.04 219.556L574.489 215.396ZM544.87 184.371C544.77 184.278 544.765 184.121 544.858 184.022L546.452 182.322C546.545 182.223 546.702 182.218 546.801 182.311L548.3 183.712L546.184 184.671L545.515 184.974L544.87 184.371ZM568.557 179.17L571.612 182.027C571.845 182.245 571.965 182.54 571.954 182.86C571.942 183.178 571.797 183.464 571.548 183.663L549.598 201.179L546.432 197.763L539.228 189.988L564.56 178.512C565.908 177.902 567.476 178.16 568.557 179.17ZM555.662 177.194L557.956 179.338L555.171 180.6L553.731 179.253C553.632 179.161 553.627 179.004 553.72 178.905L555.313 177.205L555.313 177.205C555.406 177.106 555.563 177.101 555.662 177.194Z" fill="#F91A68"/>
</g>
<defs>
<clipPath id="clip0_2002_124">
<rect width="67.9035" height="67.9883" fill="white" transform="matrix(-0.0329519 -0.999457 0.99946 -0.0328697 513.965 244.46)"/>
</clipPath>
</defs>
</svg>
