<svg width="1728" height="60" viewBox="0 0 1728 60" fill="none" xmlns="http://www.w3.org/2000/svg">
<path d="M231.255 11.6V15.8H209.975V27.784H227.391V31.984H209.975V48H205.495V11.6H231.255ZM246.776 48.56C244.387 48.56 242.147 47.9813 240.056 46.824C237.965 45.6667 236.267 44.0053 234.96 41.84C233.691 39.6373 233.056 37.0427 233.056 34.056C233.056 31.0693 233.691 28.4933 234.96 26.328C236.267 24.1253 237.965 22.4267 240.056 21.232C242.147 20.0373 244.387 19.44 246.776 19.44C249.165 19.44 251.387 20.0373 253.44 21.232C255.531 22.4267 257.211 24.1253 258.48 26.328C259.749 28.4933 260.384 31.0693 260.384 34.056C260.384 37.0427 259.749 39.6373 258.48 41.84C257.211 44.0053 255.531 45.6667 253.44 46.824C251.387 47.9813 249.165 48.56 246.776 48.56ZM246.776 44.36C248.344 44.36 249.819 43.968 251.2 43.184C252.581 42.4 253.701 41.2427 254.56 39.712C255.456 38.144 255.904 36.2587 255.904 34.056C255.904 31.8533 255.456 29.9867 254.56 28.456C253.701 26.888 252.581 25.6933 251.2 24.872C249.819 24.0507 248.344 23.64 246.776 23.64C245.208 23.64 243.715 24.0507 242.296 24.872C240.915 25.656 239.776 26.832 238.88 28.4C237.984 29.9307 237.536 31.816 237.536 34.056C237.536 36.2587 237.965 38.144 238.824 39.712C239.72 41.2427 240.877 42.4 242.296 43.184C243.715 43.968 245.208 44.36 246.776 44.36ZM266.629 8.8H271.109V48H266.629V8.8ZM279.535 8.8H284.015V48H279.535V8.8ZM304.034 48.56C301.644 48.56 299.404 47.9813 297.314 46.824C295.223 45.6667 293.524 44.0053 292.218 41.84C290.948 39.6373 290.314 37.0427 290.314 34.056C290.314 31.0693 290.948 28.4933 292.218 26.328C293.524 24.1253 295.223 22.4267 297.314 21.232C299.404 20.0373 301.644 19.44 304.034 19.44C306.423 19.44 308.644 20.0373 310.698 21.232C312.788 22.4267 314.468 24.1253 315.738 26.328C317.007 28.4933 317.642 31.0693 317.642 34.056C317.642 37.0427 317.007 39.6373 315.738 41.84C314.468 44.0053 312.788 45.6667 310.698 46.824C308.644 47.9813 306.423 48.56 304.034 48.56ZM304.034 44.36C305.602 44.36 307.076 43.968 308.458 43.184C309.839 42.4 310.959 41.2427 311.818 39.712C312.714 38.144 313.162 36.2587 313.162 34.056C313.162 31.8533 312.714 29.9867 311.818 28.456C310.959 26.888 309.839 25.6933 308.458 24.872C307.076 24.0507 305.602 23.64 304.034 23.64C302.466 23.64 300.972 24.0507 299.554 24.872C298.172 25.656 297.034 26.832 296.138 28.4C295.242 29.9307 294.794 31.816 294.794 34.056C294.794 36.2587 295.223 38.144 296.082 39.712C296.978 41.2427 298.135 42.4 299.554 43.184C300.972 43.968 302.466 44.36 304.034 44.36ZM350.619 43.912L349.499 43.856L356.051 20H360.923L352.355 48H348.155L339.867 23.472H340.987L332.699 48H328.499L319.987 20H324.859L331.299 43.856L330.179 43.912L337.739 20H343.171L350.619 43.912ZM377.468 20H381.948V48H377.468V20ZM391.58 19.44C393.073 19.44 394.417 19.664 395.612 20.112C396.806 20.56 397.814 21.2133 398.636 22.072C399.457 22.9307 400.092 23.976 400.54 25.208C400.988 26.4027 401.212 27.7653 401.212 29.296V48H396.732V30.416C396.732 28.2507 396.228 26.6267 395.22 25.544C394.212 24.4613 392.7 23.92 390.684 23.92C389.153 23.92 387.734 24.312 386.428 25.096C385.121 25.88 384.038 26.9627 383.18 28.344C382.358 29.688 381.854 31.256 381.668 33.048L381.612 29.8C381.798 28.232 382.172 26.8133 382.732 25.544C383.329 24.2747 384.057 23.192 384.916 22.296C385.812 21.3627 386.82 20.6533 387.94 20.168C389.097 19.6827 390.31 19.44 391.58 19.44ZM410.396 19.44C411.889 19.44 413.233 19.664 414.428 20.112C415.622 20.56 416.63 21.2133 417.452 22.072C418.273 22.9307 418.908 23.976 419.356 25.208C419.804 26.4027 420.028 27.7653 420.028 29.296V48H415.548V30.416C415.548 28.2507 415.044 26.6267 414.036 25.544C413.028 24.4613 411.516 23.92 409.5 23.92C407.969 23.92 406.55 24.312 405.244 25.096C403.937 25.88 402.854 26.9627 401.996 28.344C401.174 29.688 400.67 31.256 400.484 33.048L400.428 29.8C400.614 28.232 400.988 26.8133 401.548 25.544C402.145 24.2747 402.873 23.192 403.732 22.296C404.628 21.3627 405.636 20.6533 406.756 20.168C407.913 19.6827 409.126 19.44 410.396 19.44ZM424.221 20H429.037L439.061 46.88L435.141 48L424.221 20ZM450.261 20L434.637 59.2H429.765L436.541 44.08L445.501 20H450.261ZM705.265 48.56C703.211 48.56 701.531 48.0933 700.225 47.16C698.918 46.1893 697.891 44.9573 697.145 43.464C696.435 41.9333 695.931 40.3467 695.633 38.704C695.334 37.024 695.185 35.4747 695.185 34.056C695.185 32.04 695.315 30.1547 695.577 28.4C695.875 26.6453 696.379 25.096 697.089 23.752C697.798 22.408 698.806 21.3627 700.113 20.616C701.457 19.832 703.174 19.44 705.265 19.44C707.505 19.44 709.539 20.0747 711.369 21.344C713.198 22.6133 714.654 24.3493 715.737 26.552C716.857 28.7547 717.417 31.256 717.417 34.056C717.417 36.856 716.857 39.3573 715.737 41.56C714.617 43.7253 713.123 45.4427 711.257 46.712C709.427 47.944 707.43 48.56 705.265 48.56ZM704.145 44.304C705.862 44.304 707.374 43.8747 708.681 43.016C710.025 42.12 711.07 40.9067 711.817 39.376C712.563 37.808 712.937 36.0347 712.937 34.056C712.937 31.0693 712.171 28.6053 710.641 26.664C709.11 24.6853 706.945 23.696 704.145 23.696C702.502 23.696 701.046 24.144 699.777 25.04C698.507 25.8987 697.518 27.112 696.809 28.68C696.099 30.2107 695.745 32.0027 695.745 34.056C695.745 35.9227 696.043 37.64 696.641 39.208C697.275 40.7387 698.209 41.9707 699.441 42.904C700.673 43.8373 702.241 44.304 704.145 44.304ZM691.265 20H695.577L695.745 25.88V59.2H691.265V20ZM733.731 48.56C731.529 48.56 729.494 47.944 727.627 46.712C725.798 45.4427 724.323 43.7253 723.203 41.56C722.121 39.3573 721.579 36.856 721.579 34.056C721.579 31.256 722.139 28.7547 723.259 26.552C724.379 24.3493 725.891 22.6133 727.795 21.344C729.737 20.0747 731.902 19.44 734.291 19.44C736.905 19.44 738.883 20.112 740.227 21.456C741.609 22.7627 742.542 24.5173 743.027 26.72C743.55 28.9227 743.811 31.368 743.811 34.056C743.811 35.4747 743.662 37.024 743.363 38.704C743.065 40.3467 742.542 41.9333 741.795 43.464C741.086 44.9573 740.078 46.1893 738.771 47.16C737.465 48.0933 735.785 48.56 733.731 48.56ZM734.851 44.304C736.755 44.304 738.323 43.8373 739.555 42.904C740.825 41.9707 741.758 40.7387 742.355 39.208C742.953 37.64 743.251 35.9227 743.251 34.056C743.251 32.0027 742.934 30.2107 742.299 28.68C741.702 27.112 740.769 25.8987 739.499 25.04C738.267 24.144 736.718 23.696 734.851 23.696C732.051 23.696 729.886 24.6853 728.355 26.664C726.825 28.6053 726.059 31.0693 726.059 34.056C726.059 36.0347 726.433 37.808 727.179 39.376C727.963 40.9067 729.009 42.12 730.315 43.016C731.659 43.8747 733.171 44.304 734.851 44.304ZM743.251 20H747.731V48H743.643C743.643 48 743.606 47.664 743.531 46.992C743.494 46.32 743.438 45.536 743.363 44.64C743.289 43.744 743.251 42.9973 743.251 42.4V20ZM765.054 43.576C763.075 43.576 761.19 43.1093 759.398 42.176C757.643 41.2053 756.206 39.824 755.086 38.032C754.003 36.24 753.462 34.0933 753.462 31.592C753.462 29.0907 754.003 26.944 755.086 25.152C756.169 23.3227 757.587 21.9227 759.342 20.952C761.097 19.944 763.001 19.44 765.054 19.44C765.689 19.44 766.286 19.496 766.846 19.608C767.443 19.6827 768.003 19.8133 768.526 20H779.894V24.816C778.289 24.816 776.683 24.5173 775.078 23.92C773.51 23.3227 772.166 22.7067 771.046 22.072L770.822 21.848C772.129 22.5573 773.193 23.3973 774.014 24.368C774.873 25.3387 775.507 26.44 775.918 27.672C776.366 28.8667 776.59 30.1733 776.59 31.592C776.59 34.0933 776.049 36.24 774.966 38.032C773.921 39.824 772.521 41.2053 770.766 42.176C769.011 43.1093 767.107 43.576 765.054 43.576ZM773.286 59.2V57.968C773.286 55.9893 772.763 54.552 771.718 53.656C770.71 52.76 769.179 52.312 767.126 52.312H761.526C760.294 52.312 759.211 52.2 758.278 51.976C757.382 51.7893 756.635 51.4907 756.038 51.08C755.441 50.6693 754.993 50.1653 754.694 49.568C754.395 48.9707 754.246 48.2987 754.246 47.552C754.246 46.1333 754.675 45.0693 755.534 44.36C756.393 43.6133 757.457 43.1467 758.726 42.96C759.995 42.7733 761.209 42.7733 762.366 42.96L765.054 43.576C763.038 43.688 761.47 43.8933 760.35 44.192C759.267 44.4907 758.726 45.1253 758.726 46.096C758.726 46.656 758.931 47.1227 759.342 47.496C759.79 47.832 760.443 48 761.302 48H767.126C769.067 48 770.841 48.2613 772.446 48.784C774.051 49.344 775.339 50.2587 776.31 51.528C777.281 52.8347 777.766 54.608 777.766 56.848V59.2H773.286ZM765.054 39.376C766.286 39.376 767.425 39.0773 768.47 38.48C769.553 37.8827 770.43 37.0053 771.102 35.848C771.774 34.6907 772.11 33.272 772.11 31.592C772.11 29.912 771.774 28.4933 771.102 27.336C770.467 26.1413 769.609 25.2453 768.526 24.648C767.443 24.0133 766.286 23.696 765.054 23.696C763.822 23.696 762.665 24.0133 761.582 24.648C760.499 25.2453 759.622 26.1227 758.95 27.28C758.278 28.4373 757.942 29.8747 757.942 31.592C757.942 33.272 758.278 34.6907 758.95 35.848C759.622 37.0053 760.499 37.8827 761.582 38.48C762.665 39.0773 763.822 39.376 765.054 39.376ZM804.987 38.984H809.187C808.888 40.8133 808.216 42.456 807.171 43.912C806.163 45.3307 804.819 46.4693 803.139 47.328C801.496 48.1493 799.592 48.56 797.427 48.56C794.814 48.56 792.462 47.944 790.371 46.712C788.28 45.4427 786.619 43.7253 785.387 41.56C784.192 39.3573 783.595 36.856 783.595 34.056C783.595 31.256 784.174 28.7547 785.331 26.552C786.526 24.3493 788.15 22.6133 790.203 21.344C792.256 20.0747 794.571 19.44 797.147 19.44C799.872 19.44 802.168 20.056 804.035 21.288C805.939 22.4827 807.339 24.256 808.235 26.608C809.168 28.9227 809.542 31.7787 809.355 35.176H788.075C788.262 37.0053 788.766 38.6107 789.587 39.992C790.408 41.3733 791.491 42.456 792.835 43.24C794.179 43.9867 795.71 44.36 797.427 44.36C799.331 44.36 800.936 43.8747 802.243 42.904C803.587 41.896 804.502 40.5893 804.987 38.984ZM797.315 23.64C795 23.64 793.059 24.312 791.491 25.656C789.923 27 788.878 28.8293 788.355 31.144H804.763C804.614 28.68 803.811 26.8133 802.355 25.544C800.936 24.2747 799.256 23.64 797.315 23.64Z" fill="#707070"/>
<path d="M472.092 11.6V43.8H492.252V48H467.612V11.6H472.092ZM504.254 8.8V14.232H498.43V8.8H504.254ZM499.102 20H503.582V48H499.102V20ZM511.233 20H515.713V48H511.233V20ZM525.345 19.44C526.839 19.44 528.183 19.664 529.377 20.112C530.572 20.56 531.58 21.2133 532.401 22.072C533.223 22.9307 533.857 23.976 534.305 25.208C534.753 26.4027 534.977 27.7653 534.977 29.296V48H530.497V30.416C530.497 28.2507 529.993 26.6267 528.985 25.544C527.977 24.4613 526.465 23.92 524.449 23.92C522.919 23.92 521.5 24.312 520.193 25.096C518.887 25.88 517.804 26.9627 516.945 28.344C516.124 29.688 515.62 31.256 515.433 33.048L515.377 29.8C515.564 28.232 515.937 26.8133 516.497 25.544C517.095 24.2747 517.823 23.192 518.681 22.296C519.577 21.3627 520.585 20.6533 521.705 20.168C522.863 19.6827 524.076 19.44 525.345 19.44ZM542.913 8.8H547.393V48H542.913V8.8ZM566.097 20L552.097 33.832L552.209 30.92L567.049 48H561.337L547.505 32.376L559.713 20H566.097ZM589.956 38.984H594.156C593.857 40.8133 593.185 42.456 592.14 43.912C591.132 45.3307 589.788 46.4693 588.108 47.328C586.465 48.1493 584.561 48.56 582.396 48.56C579.782 48.56 577.43 47.944 575.34 46.712C573.249 45.4427 571.588 43.7253 570.356 41.56C569.161 39.3573 568.564 36.856 568.564 34.056C568.564 31.256 569.142 28.7547 570.3 26.552C571.494 24.3493 573.118 22.6133 575.172 21.344C577.225 20.0747 579.54 19.44 582.116 19.44C584.841 19.44 587.137 20.056 589.004 21.288C590.908 22.4827 592.308 24.256 593.204 26.608C594.137 28.9227 594.51 31.7787 594.324 35.176H573.044C573.23 37.0053 573.734 38.6107 574.556 39.992C575.377 41.3733 576.46 42.456 577.804 43.24C579.148 43.9867 580.678 44.36 582.396 44.36C584.3 44.36 585.905 43.8747 587.212 42.904C588.556 41.896 589.47 40.5893 589.956 38.984ZM582.284 23.64C579.969 23.64 578.028 24.312 576.46 25.656C574.892 27 573.846 28.8293 573.324 31.144H589.732C589.582 28.68 588.78 26.8133 587.324 25.544C585.905 24.2747 584.225 23.64 582.284 23.64ZM610.684 48.56C608.444 48.56 606.391 47.944 604.524 46.712C602.695 45.4427 601.239 43.7253 600.156 41.56C599.074 39.3573 598.532 36.856 598.532 34.056C598.532 31.256 599.055 28.7547 600.1 26.552C601.146 24.3493 602.583 22.6133 604.412 21.344C606.242 20.0747 608.332 19.44 610.684 19.44C612.775 19.44 614.474 19.832 615.78 20.616C617.124 21.3627 618.151 22.408 618.86 23.752C619.57 25.096 620.055 26.6453 620.316 28.4C620.615 30.1547 620.764 32.04 620.764 34.056C620.764 35.4747 620.615 37.024 620.316 38.704C620.018 40.3467 619.495 41.9333 618.748 43.464C618.039 44.9573 617.031 46.1893 615.724 47.16C614.418 48.0933 612.738 48.56 610.684 48.56ZM611.804 44.304C613.708 44.304 615.276 43.8373 616.508 42.904C617.778 41.9707 618.711 40.7387 619.308 39.208C619.906 37.64 620.204 35.9227 620.204 34.056C620.204 32.0027 619.887 30.2107 619.252 28.68C618.655 27.112 617.722 25.8987 616.452 25.04C615.22 24.144 613.671 23.696 611.804 23.696C609.004 23.696 606.839 24.6853 605.308 26.664C603.778 28.6053 603.012 31.0693 603.012 34.056C603.012 36.0347 603.386 37.808 604.132 39.376C604.916 40.9067 605.962 42.12 607.268 43.016C608.612 43.8747 610.124 44.304 611.804 44.304ZM620.204 8.8H624.684V48H620.596C620.522 47.1787 620.428 46.208 620.316 45.088C620.242 43.968 620.204 43.072 620.204 42.4V8.8ZM634.764 11.6H639.244V48H634.764V11.6ZM648.499 20H652.979V48H648.499V20ZM662.611 19.44C664.104 19.44 665.448 19.664 666.643 20.112C667.838 20.56 668.846 21.2133 669.667 22.072C670.488 22.9307 671.123 23.976 671.571 25.208C672.019 26.4027 672.243 27.7653 672.243 29.296V48H667.763V30.416C667.763 28.2507 667.259 26.6267 666.251 25.544C665.243 24.4613 663.731 23.92 661.715 23.92C660.184 23.92 658.766 24.312 657.459 25.096C656.152 25.88 655.07 26.9627 654.211 28.344C653.39 29.688 652.886 31.256 652.699 33.048L652.643 29.8C652.83 28.232 653.203 26.8133 653.763 25.544C654.36 24.2747 655.088 23.192 655.947 22.296C656.843 21.3627 657.851 20.6533 658.971 20.168C660.128 19.6827 661.342 19.44 662.611 19.44Z" fill="white"/>
<path d="M1194.26 11.6V15.8H1172.98V27.784H1190.39V31.984H1172.98V48H1168.5V11.6H1194.26ZM1209.78 48.56C1207.39 48.56 1205.15 47.9813 1203.06 46.824C1200.97 45.6667 1199.27 44.0053 1197.96 41.84C1196.69 39.6373 1196.06 37.0427 1196.06 34.056C1196.06 31.0693 1196.69 28.4933 1197.96 26.328C1199.27 24.1253 1200.97 22.4267 1203.06 21.232C1205.15 20.0373 1207.39 19.44 1209.78 19.44C1212.17 19.44 1214.39 20.0373 1216.44 21.232C1218.53 22.4267 1220.21 24.1253 1221.48 26.328C1222.75 28.4933 1223.38 31.0693 1223.38 34.056C1223.38 37.0427 1222.75 39.6373 1221.48 41.84C1220.21 44.0053 1218.53 45.6667 1216.44 46.824C1214.39 47.9813 1212.17 48.56 1209.78 48.56ZM1209.78 44.36C1211.34 44.36 1212.82 43.968 1214.2 43.184C1215.58 42.4 1216.7 41.2427 1217.56 39.712C1218.46 38.144 1218.9 36.2587 1218.9 34.056C1218.9 31.8533 1218.46 29.9867 1217.56 28.456C1216.7 26.888 1215.58 25.6933 1214.2 24.872C1212.82 24.0507 1211.34 23.64 1209.78 23.64C1208.21 23.64 1206.71 24.0507 1205.3 24.872C1203.91 25.656 1202.78 26.832 1201.88 28.4C1200.98 29.9307 1200.54 31.816 1200.54 34.056C1200.54 36.2587 1200.97 38.144 1201.82 39.712C1202.72 41.2427 1203.88 42.4 1205.3 43.184C1206.71 43.968 1208.21 44.36 1209.78 44.36ZM1229.63 8.8H1234.11V48H1229.63V8.8ZM1242.54 8.8H1247.02V48H1242.54V8.8ZM1267.03 48.56C1264.64 48.56 1262.4 47.9813 1260.31 46.824C1258.22 45.6667 1256.52 44.0053 1255.22 41.84C1253.95 39.6373 1253.31 37.0427 1253.31 34.056C1253.31 31.0693 1253.95 28.4933 1255.22 26.328C1256.52 24.1253 1258.22 22.4267 1260.31 21.232C1262.4 20.0373 1264.64 19.44 1267.03 19.44C1269.42 19.44 1271.64 20.0373 1273.7 21.232C1275.79 22.4267 1277.47 24.1253 1278.74 26.328C1280.01 28.4933 1280.64 31.0693 1280.64 34.056C1280.64 37.0427 1280.01 39.6373 1278.74 41.84C1277.47 44.0053 1275.79 45.6667 1273.7 46.824C1271.64 47.9813 1269.42 48.56 1267.03 48.56ZM1267.03 44.36C1268.6 44.36 1270.08 43.968 1271.46 43.184C1272.84 42.4 1273.96 41.2427 1274.82 39.712C1275.71 38.144 1276.16 36.2587 1276.16 34.056C1276.16 31.8533 1275.71 29.9867 1274.82 28.456C1273.96 26.888 1272.84 25.6933 1271.46 24.872C1270.08 24.0507 1268.6 23.64 1267.03 23.64C1265.47 23.64 1263.97 24.0507 1262.55 24.872C1261.17 25.656 1260.03 26.832 1259.14 28.4C1258.24 29.9307 1257.79 31.816 1257.79 34.056C1257.79 36.2587 1258.22 38.144 1259.08 39.712C1259.98 41.2427 1261.14 42.4 1262.55 43.184C1263.97 43.968 1265.47 44.36 1267.03 44.36ZM1313.62 43.912L1312.5 43.856L1319.05 20H1323.92L1315.35 48H1311.15L1302.87 23.472H1303.99L1295.7 48H1291.5L1282.99 20H1287.86L1294.3 43.856L1293.18 43.912L1300.74 20H1306.17L1313.62 43.912ZM1340.47 20H1344.95V48H1340.47V20ZM1354.58 19.44C1356.07 19.44 1357.42 19.664 1358.61 20.112C1359.81 20.56 1360.81 21.2133 1361.64 22.072C1362.46 22.9307 1363.09 23.976 1363.54 25.208C1363.99 26.4027 1364.21 27.7653 1364.21 29.296V48H1359.73V30.416C1359.73 28.2507 1359.23 26.6267 1358.22 25.544C1357.21 24.4613 1355.7 23.92 1353.68 23.92C1352.15 23.92 1350.73 24.312 1349.43 25.096C1348.12 25.88 1347.04 26.9627 1346.18 28.344C1345.36 29.688 1344.85 31.256 1344.67 33.048L1344.61 29.8C1344.8 28.232 1345.17 26.8133 1345.73 25.544C1346.33 24.2747 1347.06 23.192 1347.92 22.296C1348.81 21.3627 1349.82 20.6533 1350.94 20.168C1352.1 19.6827 1353.31 19.44 1354.58 19.44ZM1373.4 19.44C1374.89 19.44 1376.23 19.664 1377.43 20.112C1378.62 20.56 1379.63 21.2133 1380.45 22.072C1381.27 22.9307 1381.91 23.976 1382.36 25.208C1382.8 26.4027 1383.03 27.7653 1383.03 29.296V48H1378.55V30.416C1378.55 28.2507 1378.04 26.6267 1377.04 25.544C1376.03 24.4613 1374.52 23.92 1372.5 23.92C1370.97 23.92 1369.55 24.312 1368.24 25.096C1366.94 25.88 1365.85 26.9627 1365 28.344C1364.17 29.688 1363.67 31.256 1363.48 33.048L1363.43 29.8C1363.61 28.232 1363.99 26.8133 1364.55 25.544C1365.14 24.2747 1365.87 23.192 1366.73 22.296C1367.63 21.3627 1368.64 20.6533 1369.76 20.168C1370.91 19.6827 1372.13 19.44 1373.4 19.44ZM1387.22 20H1392.04L1402.06 46.88L1398.14 48L1387.22 20ZM1413.26 20L1397.64 59.2H1392.77L1399.54 44.08L1408.5 20H1413.26ZM1668.26 48.56C1666.21 48.56 1664.53 48.0933 1663.22 47.16C1661.92 46.1893 1660.89 44.9573 1660.14 43.464C1659.44 41.9333 1658.93 40.3467 1658.63 38.704C1658.33 37.024 1658.18 35.4747 1658.18 34.056C1658.18 32.04 1658.32 30.1547 1658.58 28.4C1658.88 26.6453 1659.38 25.096 1660.09 23.752C1660.8 22.408 1661.81 21.3627 1663.11 20.616C1664.46 19.832 1666.17 19.44 1668.26 19.44C1670.5 19.44 1672.54 20.0747 1674.37 21.344C1676.2 22.6133 1677.65 24.3493 1678.74 26.552C1679.86 28.7547 1680.42 31.256 1680.42 34.056C1680.42 36.856 1679.86 39.3573 1678.74 41.56C1677.62 43.7253 1676.12 45.4427 1674.26 46.712C1672.43 47.944 1670.43 48.56 1668.26 48.56ZM1667.14 44.304C1668.86 44.304 1670.37 43.8747 1671.68 43.016C1673.02 42.12 1674.07 40.9067 1674.82 39.376C1675.56 37.808 1675.94 36.0347 1675.94 34.056C1675.94 31.0693 1675.17 28.6053 1673.64 26.664C1672.11 24.6853 1669.94 23.696 1667.14 23.696C1665.5 23.696 1664.05 24.144 1662.78 25.04C1661.51 25.8987 1660.52 27.112 1659.81 28.68C1659.1 30.2107 1658.74 32.0027 1658.74 34.056C1658.74 35.9227 1659.04 37.64 1659.64 39.208C1660.28 40.7387 1661.21 41.9707 1662.44 42.904C1663.67 43.8373 1665.24 44.304 1667.14 44.304ZM1654.26 20H1658.58L1658.74 25.88V59.2H1654.26V20ZM1696.73 48.56C1694.53 48.56 1692.49 47.944 1690.63 46.712C1688.8 45.4427 1687.32 43.7253 1686.2 41.56C1685.12 39.3573 1684.58 36.856 1684.58 34.056C1684.58 31.256 1685.14 28.7547 1686.26 26.552C1687.38 24.3493 1688.89 22.6133 1690.8 21.344C1692.74 20.0747 1694.9 19.44 1697.29 19.44C1699.9 19.44 1701.88 20.112 1703.23 21.456C1704.61 22.7627 1705.54 24.5173 1706.03 26.72C1706.55 28.9227 1706.81 31.368 1706.81 34.056C1706.81 35.4747 1706.66 37.024 1706.36 38.704C1706.06 40.3467 1705.54 41.9333 1704.8 43.464C1704.09 44.9573 1703.08 46.1893 1701.77 47.16C1700.46 48.0933 1698.78 48.56 1696.73 48.56ZM1697.85 44.304C1699.76 44.304 1701.32 43.8373 1702.56 42.904C1703.82 41.9707 1704.76 40.7387 1705.36 39.208C1705.95 37.64 1706.25 35.9227 1706.25 34.056C1706.25 32.0027 1705.93 30.2107 1705.3 28.68C1704.7 27.112 1703.77 25.8987 1702.5 25.04C1701.27 24.144 1699.72 23.696 1697.85 23.696C1695.05 23.696 1692.89 24.6853 1691.36 26.664C1689.82 28.6053 1689.06 31.0693 1689.06 34.056C1689.06 36.0347 1689.43 37.808 1690.18 39.376C1690.96 40.9067 1692.01 42.12 1693.32 43.016C1694.66 43.8747 1696.17 44.304 1697.85 44.304ZM1706.25 20H1710.73V48H1706.64C1706.64 48 1706.61 47.664 1706.53 46.992C1706.49 46.32 1706.44 45.536 1706.36 44.64C1706.29 43.744 1706.25 42.9973 1706.25 42.4V20ZM1728.05 43.576C1726.08 43.576 1724.19 43.1093 1722.4 42.176C1720.64 41.2053 1719.21 39.824 1718.09 38.032C1717 36.24 1716.46 34.0933 1716.46 31.592C1716.46 29.0907 1717 26.944 1718.09 25.152C1719.17 23.3227 1720.59 21.9227 1722.34 20.952C1724.1 19.944 1726 19.44 1728.05 19.44C1728.69 19.44 1729.29 19.496 1729.85 19.608C1730.44 19.6827 1731 19.8133 1731.53 20H1742.89V24.816C1741.29 24.816 1739.68 24.5173 1738.08 23.92C1736.51 23.3227 1735.17 22.7067 1734.05 22.072L1733.82 21.848C1735.13 22.5573 1736.19 23.3973 1737.01 24.368C1737.87 25.3387 1738.51 26.44 1738.92 27.672C1739.37 28.8667 1739.59 30.1733 1739.59 31.592C1739.59 34.0933 1739.05 36.24 1737.97 38.032C1736.92 39.824 1735.52 41.2053 1733.77 42.176C1732.01 43.1093 1730.11 43.576 1728.05 43.576ZM1736.29 59.2V57.968C1736.29 55.9893 1735.76 54.552 1734.72 53.656C1733.71 52.76 1732.18 52.312 1730.13 52.312H1724.53C1723.29 52.312 1722.21 52.2 1721.28 51.976C1720.38 51.7893 1719.64 51.4907 1719.04 51.08C1718.44 50.6693 1717.99 50.1653 1717.69 49.568C1717.4 48.9707 1717.25 48.2987 1717.25 47.552C1717.25 46.1333 1717.68 45.0693 1718.53 44.36C1719.39 43.6133 1720.46 43.1467 1721.73 42.96C1723 42.7733 1724.21 42.7733 1725.37 42.96L1728.05 43.576C1726.04 43.688 1724.47 43.8933 1723.35 44.192C1722.27 44.4907 1721.73 45.1253 1721.73 46.096C1721.73 46.656 1721.93 47.1227 1722.34 47.496C1722.79 47.832 1723.44 48 1724.3 48H1730.13C1732.07 48 1733.84 48.2613 1735.45 48.784C1737.05 49.344 1738.34 50.2587 1739.31 51.528C1740.28 52.8347 1740.77 54.608 1740.77 56.848V59.2H1736.29ZM1728.05 39.376C1729.29 39.376 1730.42 39.0773 1731.47 38.48C1732.55 37.8827 1733.43 37.0053 1734.1 35.848C1734.77 34.6907 1735.11 33.272 1735.11 31.592C1735.11 29.912 1734.77 28.4933 1734.1 27.336C1733.47 26.1413 1732.61 25.2453 1731.53 24.648C1730.44 24.0133 1729.29 23.696 1728.05 23.696C1726.82 23.696 1725.66 24.0133 1724.58 24.648C1723.5 25.2453 1722.62 26.1227 1721.95 27.28C1721.28 28.4373 1720.94 29.8747 1720.94 31.592C1720.94 33.272 1721.28 34.6907 1721.95 35.848C1722.62 37.0053 1723.5 37.8827 1724.58 38.48C1725.66 39.0773 1726.82 39.376 1728.05 39.376ZM1767.99 38.984H1772.19C1771.89 40.8133 1771.22 42.456 1770.17 43.912C1769.16 45.3307 1767.82 46.4693 1766.14 47.328C1764.5 48.1493 1762.59 48.56 1760.43 48.56C1757.81 48.56 1755.46 47.944 1753.37 46.712C1751.28 45.4427 1749.62 43.7253 1748.39 41.56C1747.19 39.3573 1746.59 36.856 1746.59 34.056C1746.59 31.256 1747.17 28.7547 1748.33 26.552C1749.53 24.3493 1751.15 22.6133 1753.2 21.344C1755.26 20.0747 1757.57 19.44 1760.15 19.44C1762.87 19.44 1765.17 20.056 1767.03 21.288C1768.94 22.4827 1770.34 24.256 1771.23 26.608C1772.17 28.9227 1772.54 31.7787 1772.35 35.176H1751.07C1751.26 37.0053 1751.77 38.6107 1752.59 39.992C1753.41 41.3733 1754.49 42.456 1755.83 43.24C1757.18 43.9867 1758.71 44.36 1760.43 44.36C1762.33 44.36 1763.94 43.8747 1765.24 42.904C1766.59 41.896 1767.5 40.5893 1767.99 38.984ZM1760.31 23.64C1758 23.64 1756.06 24.312 1754.49 25.656C1752.92 27 1751.88 28.8293 1751.35 31.144H1767.76C1767.61 28.68 1766.81 26.8133 1765.35 25.544C1763.94 24.2747 1762.26 23.64 1760.31 23.64Z" fill="#707070"/>
<path d="M1435.09 11.6V43.8H1455.25V48H1430.61V11.6H1435.09ZM1467.25 8.8V14.232H1461.43V8.8H1467.25ZM1462.1 20H1466.58V48H1462.1V20ZM1474.23 20H1478.71V48H1474.23V20ZM1488.35 19.44C1489.84 19.44 1491.18 19.664 1492.38 20.112C1493.57 20.56 1494.58 21.2133 1495.4 22.072C1496.22 22.9307 1496.86 23.976 1497.31 25.208C1497.75 26.4027 1497.98 27.7653 1497.98 29.296V48H1493.5V30.416C1493.5 28.2507 1492.99 26.6267 1491.99 25.544C1490.98 24.4613 1489.47 23.92 1487.45 23.92C1485.92 23.92 1484.5 24.312 1483.19 25.096C1481.89 25.88 1480.8 26.9627 1479.95 28.344C1479.12 29.688 1478.62 31.256 1478.43 33.048L1478.38 29.8C1478.56 28.232 1478.94 26.8133 1479.5 25.544C1480.09 24.2747 1480.82 23.192 1481.68 22.296C1482.58 21.3627 1483.59 20.6533 1484.71 20.168C1485.86 19.6827 1487.08 19.44 1488.35 19.44ZM1505.91 8.8H1510.39V48H1505.91V8.8ZM1529.1 20L1515.1 33.832L1515.21 30.92L1530.05 48H1524.34L1510.51 32.376L1522.71 20H1529.1ZM1552.96 38.984H1557.16C1556.86 40.8133 1556.19 42.456 1555.14 43.912C1554.13 45.3307 1552.79 46.4693 1551.11 47.328C1549.47 48.1493 1547.56 48.56 1545.4 48.56C1542.78 48.56 1540.43 47.944 1538.34 46.712C1536.25 45.4427 1534.59 43.7253 1533.36 41.56C1532.16 39.3573 1531.56 36.856 1531.56 34.056C1531.56 31.256 1532.14 28.7547 1533.3 26.552C1534.49 24.3493 1536.12 22.6133 1538.17 21.344C1540.23 20.0747 1542.54 19.44 1545.12 19.44C1547.84 19.44 1550.14 20.056 1552 21.288C1553.91 22.4827 1555.31 24.256 1556.2 26.608C1557.14 28.9227 1557.51 31.7787 1557.32 35.176H1536.04C1536.23 37.0053 1536.73 38.6107 1537.56 39.992C1538.38 41.3733 1539.46 42.456 1540.8 43.24C1542.15 43.9867 1543.68 44.36 1545.4 44.36C1547.3 44.36 1548.91 43.8747 1550.21 42.904C1551.56 41.896 1552.47 40.5893 1552.96 38.984ZM1545.28 23.64C1542.97 23.64 1541.03 24.312 1539.46 25.656C1537.89 27 1536.85 28.8293 1536.32 31.144H1552.73C1552.58 28.68 1551.78 26.8133 1550.32 25.544C1548.91 24.2747 1547.23 23.64 1545.28 23.64ZM1573.68 48.56C1571.44 48.56 1569.39 47.944 1567.52 46.712C1565.7 45.4427 1564.24 43.7253 1563.16 41.56C1562.07 39.3573 1561.53 36.856 1561.53 34.056C1561.53 31.256 1562.06 28.7547 1563.1 26.552C1564.15 24.3493 1565.58 22.6133 1567.41 21.344C1569.24 20.0747 1571.33 19.44 1573.68 19.44C1575.78 19.44 1577.47 19.832 1578.78 20.616C1580.12 21.3627 1581.15 22.408 1581.86 23.752C1582.57 25.096 1583.06 26.6453 1583.32 28.4C1583.62 30.1547 1583.76 32.04 1583.76 34.056C1583.76 35.4747 1583.62 37.024 1583.32 38.704C1583.02 40.3467 1582.5 41.9333 1581.75 43.464C1581.04 44.9573 1580.03 46.1893 1578.72 47.16C1577.42 48.0933 1575.74 48.56 1573.68 48.56ZM1574.8 44.304C1576.71 44.304 1578.28 43.8373 1579.51 42.904C1580.78 41.9707 1581.71 40.7387 1582.31 39.208C1582.91 37.64 1583.2 35.9227 1583.2 34.056C1583.2 32.0027 1582.89 30.2107 1582.25 28.68C1581.66 27.112 1580.72 25.8987 1579.45 25.04C1578.22 24.144 1576.67 23.696 1574.8 23.696C1572 23.696 1569.84 24.6853 1568.31 26.664C1566.78 28.6053 1566.01 31.0693 1566.01 34.056C1566.01 36.0347 1566.39 37.808 1567.13 39.376C1567.92 40.9067 1568.96 42.12 1570.27 43.016C1571.61 43.8747 1573.12 44.304 1574.8 44.304ZM1583.2 8.8H1587.68V48H1583.6C1583.52 47.1787 1583.43 46.208 1583.32 45.088C1583.24 43.968 1583.2 43.072 1583.2 42.4V8.8ZM1597.76 11.6H1602.24V48H1597.76V11.6ZM1611.5 20H1615.98V48H1611.5V20ZM1625.61 19.44C1627.1 19.44 1628.45 19.664 1629.64 20.112C1630.84 20.56 1631.85 21.2133 1632.67 22.072C1633.49 22.9307 1634.12 23.976 1634.57 25.208C1635.02 26.4027 1635.24 27.7653 1635.24 29.296V48H1630.76V30.416C1630.76 28.2507 1630.26 26.6267 1629.25 25.544C1628.24 24.4613 1626.73 23.92 1624.71 23.92C1623.18 23.92 1621.77 24.312 1620.46 25.096C1619.15 25.88 1618.07 26.9627 1617.21 28.344C1616.39 29.688 1615.89 31.256 1615.7 33.048L1615.64 29.8C1615.83 28.232 1616.2 26.8133 1616.76 25.544C1617.36 24.2747 1618.09 23.192 1618.95 22.296C1619.84 21.3627 1620.85 20.6533 1621.97 20.168C1623.13 19.6827 1624.34 19.44 1625.61 19.44Z" fill="white"/>
<path d="M160.643 26.8136V26.7402C160.627 26.765 160.611 26.7898 160.595 26.8136H160.643Z" fill="white"/>
<path d="M178.925 5.44531H138.806C136.885 5.44531 135.328 6.9655 135.328 8.83906V49.4279C135.328 51.3005 136.885 52.8207 138.806 52.8207H178.925C180.848 52.8207 182.405 51.2995 182.405 49.4279V8.83906C182.405 6.96455 180.847 5.44531 178.925 5.44531ZM149.597 45.1045H142.487V23.7123H149.597V45.1045ZM146.043 20.7901H145.995C143.61 20.7901 142.067 19.147 142.067 17.0944C142.067 14.996 143.658 13.3987 146.089 13.3987C148.522 13.3987 150.018 14.996 150.066 17.0944C150.066 19.147 148.521 20.7901 146.043 20.7901ZM175.238 45.1045H168.127V33.6574C168.127 30.7827 167.099 28.8206 164.526 28.8206C162.562 28.8206 161.392 30.1436 160.877 31.4219C160.689 31.8781 160.644 32.5163 160.644 33.1563V45.1035H153.533C153.533 45.1035 153.626 25.7164 153.533 23.7114H160.644V26.7394C161.588 25.282 163.278 23.2066 167.053 23.2066C171.731 23.2066 175.239 26.265 175.239 32.8363L175.238 45.1045Z" fill="white"/>
<path d="M1125.64 28.8136V28.7402C1125.63 28.765 1125.61 28.7898 1125.59 28.8136H1125.64Z" fill="white"/>
<path d="M1143.92 7.44531H1103.81C1101.89 7.44531 1100.33 8.9655 1100.33 10.8391V51.4279C1100.33 53.3005 1101.89 54.8207 1103.81 54.8207H1143.92C1145.85 54.8207 1147.41 53.2995 1147.41 51.4279V10.8391C1147.41 8.96455 1145.85 7.44531 1143.92 7.44531ZM1114.6 47.1045H1107.49V25.7123H1114.6V47.1045ZM1111.04 22.7901H1111C1108.61 22.7901 1107.07 21.147 1107.07 19.0944C1107.07 16.996 1108.66 15.3987 1111.09 15.3987C1113.52 15.3987 1115.02 16.996 1115.07 19.0944C1115.07 21.147 1113.52 22.7901 1111.04 22.7901ZM1140.24 47.1045H1133.13V35.6574C1133.13 32.7827 1132.1 30.8206 1129.53 30.8206C1127.56 30.8206 1126.39 32.1436 1125.88 33.4219C1125.69 33.8781 1125.64 34.5163 1125.64 35.1563V47.1035H1118.53C1118.53 47.1035 1118.63 27.7164 1118.53 25.7114H1125.64V28.7394C1126.59 27.282 1128.28 25.2066 1132.05 25.2066C1136.73 25.2066 1140.24 28.265 1140.24 34.8363L1140.24 47.1045Z" fill="white"/>
<rect x="-73" y="6" width="175" height="48" rx="10" fill="white"/>
<path d="M-20.858 35.216C-21.35 35.216 -21.794 35.144 -22.19 35C-22.574 34.856 -22.916 34.67 -23.216 34.442C-23.516 34.202 -23.768 33.938 -23.972 33.65C-24.176 33.35 -24.338 33.05 -24.458 32.75L-23.036 32.03C-22.808 32.498 -22.52 32.876 -22.172 33.164C-21.812 33.452 -21.374 33.596 -20.858 33.596C-20.438 33.596 -20.036 33.5 -19.652 33.308C-19.268 33.116 -18.95 32.798 -18.698 32.354C-18.446 31.898 -18.32 31.304 -18.32 30.572V22.4H-16.556V31.202C-16.556 31.862 -16.676 32.444 -16.916 32.948C-17.144 33.44 -17.462 33.86 -17.87 34.208C-18.266 34.544 -18.722 34.796 -19.238 34.964C-19.754 35.132 -20.294 35.216 -20.858 35.216ZM-9.87095 35.216C-10.771 35.216 -11.563 35.018 -12.247 34.622C-12.931 34.214 -13.471 33.656 -13.867 32.948C-14.251 32.24 -14.443 31.424 -14.443 30.5C-14.443 29.576 -14.251 28.76 -13.867 28.052C-13.483 27.344 -12.949 26.792 -12.265 26.396C-11.581 25.988 -10.795 25.784 -9.90695 25.784C-9.01895 25.784 -8.23295 25.988 -7.54895 26.396C-6.86495 26.792 -6.33095 27.344 -5.94695 28.052C-5.56295 28.76 -5.37095 29.576 -5.37095 30.5C-5.37095 31.424 -5.56295 32.24 -5.94695 32.948C-6.33095 33.656 -6.86495 34.214 -7.54895 34.622C-8.22095 35.018 -8.99495 35.216 -9.87095 35.216ZM-9.87095 33.65C-9.33095 33.65 -8.85095 33.518 -8.43095 33.254C-8.01095 32.978 -7.68695 32.606 -7.45895 32.138C-7.21895 31.67 -7.09895 31.124 -7.09895 30.5C-7.09895 29.876 -7.21895 29.33 -7.45895 28.862C-7.68695 28.394 -8.01695 28.028 -8.44895 27.764C-8.88095 27.488 -9.36695 27.35 -9.90695 27.35C-10.459 27.35 -10.945 27.488 -11.365 27.764C-11.785 28.028 -12.115 28.394 -12.355 28.862C-12.595 29.33 -12.715 29.876 -12.715 30.5C-12.715 31.124 -12.595 31.67 -12.355 32.138C-12.115 32.606 -11.779 32.978 -11.347 33.254C-10.915 33.518 -10.423 33.65 -9.87095 33.65ZM-3.38955 35V26H-1.67955V35H-3.38955ZM-2.52555 24.092C-2.80155 24.092 -3.04155 23.99 -3.24555 23.786C-3.44955 23.57 -3.55155 23.324 -3.55155 23.048C-3.55155 22.76 -3.44955 22.52 -3.24555 22.328C-3.04155 22.124 -2.80155 22.022 -2.52555 22.022C-2.23755 22.022 -1.99755 22.124 -1.80555 22.328C-1.60155 22.52 -1.49955 22.76 -1.49955 23.048C-1.49955 23.324 -1.60155 23.57 -1.80555 23.786C-1.99755 23.99 -2.23755 24.092 -2.52555 24.092ZM0.826672 35V26H2.42867L2.53667 27.656V35H0.826672ZM7.05467 35V30.392H8.76467V35H7.05467ZM7.05467 30.392C7.05467 29.576 6.95867 28.958 6.76667 28.538C6.58667 28.106 6.32867 27.806 5.99267 27.638C5.66867 27.47 5.29067 27.38 4.85867 27.368C4.12667 27.368 3.55667 27.626 3.14867 28.142C2.74067 28.658 2.53667 29.384 2.53667 30.32H1.79867C1.79867 29.372 1.93667 28.562 2.21267 27.89C2.50067 27.206 2.90267 26.684 3.41867 26.324C3.94667 25.964 4.57067 25.784 5.29067 25.784C5.99867 25.784 6.61067 25.928 7.12667 26.216C7.65467 26.504 8.05667 26.954 8.33267 27.566C8.62067 28.166 8.76467 28.958 8.76467 29.942V30.392H7.05467ZM15.725 35V22.4H17.543L24.671 32.048V22.4H26.453V35H24.671L17.489 25.262V35H15.725ZM33.3185 35.216C32.4185 35.216 31.6265 35.018 30.9425 34.622C30.2585 34.214 29.7185 33.656 29.3225 32.948C28.9385 32.24 28.7465 31.424 28.7465 30.5C28.7465 29.576 28.9385 28.76 29.3225 28.052C29.7065 27.344 30.2405 26.792 30.9245 26.396C31.6085 25.988 32.3945 25.784 33.2825 25.784C34.1705 25.784 34.9565 25.988 35.6405 26.396C36.3245 26.792 36.8585 27.344 37.2425 28.052C37.6265 28.76 37.8185 29.576 37.8185 30.5C37.8185 31.424 37.6265 32.24 37.2425 32.948C36.8585 33.656 36.3245 34.214 35.6405 34.622C34.9685 35.018 34.1945 35.216 33.3185 35.216ZM33.3185 33.65C33.8585 33.65 34.3385 33.518 34.7585 33.254C35.1785 32.978 35.5025 32.606 35.7305 32.138C35.9705 31.67 36.0905 31.124 36.0905 30.5C36.0905 29.876 35.9705 29.33 35.7305 28.862C35.5025 28.394 35.1725 28.028 34.7405 27.764C34.3085 27.488 33.8225 27.35 33.2825 27.35C32.7305 27.35 32.2445 27.488 31.8245 27.764C31.4045 28.028 31.0745 28.394 30.8345 28.862C30.5945 29.33 30.4745 29.876 30.4745 30.5C30.4745 31.124 30.5945 31.67 30.8345 32.138C31.0745 32.606 31.4105 32.978 31.8425 33.254C32.2745 33.518 32.7665 33.65 33.3185 33.65ZM47.6547 35L50.6967 26H52.4067L49.3467 35H47.6547ZM41.5887 35L44.5767 26H46.1247L43.1727 35H41.5887ZM41.4627 35L38.4027 26H40.1307L43.1007 35H41.4627ZM47.6547 35L44.7027 26H46.2687L49.2387 35H47.6547Z" fill="#202020"/>
<rect x="841" y="6" width="48" height="48" rx="10" fill="white"/>
<rect x="860" y="30" width="7.63636" height="7.63636" transform="rotate(-45 860 30)" fill="#202020"/>
<rect x="865" y="16" width="0.8" height="28" fill="#202020"/>
<rect x="851" y="30" width="0.8" height="28" transform="rotate(-90 851 30)" fill="#202020"/>
<rect x="890" y="6" width="175" height="48" rx="10" fill="white"/>
<path d="M942.142 35.216C941.65 35.216 941.206 35.144 940.81 35C940.426 34.856 940.084 34.67 939.784 34.442C939.484 34.202 939.232 33.938 939.028 33.65C938.824 33.35 938.662 33.05 938.542 32.75L939.964 32.03C940.192 32.498 940.48 32.876 940.828 33.164C941.188 33.452 941.626 33.596 942.142 33.596C942.562 33.596 942.964 33.5 943.348 33.308C943.732 33.116 944.05 32.798 944.302 32.354C944.554 31.898 944.68 31.304 944.68 30.572V22.4H946.444V31.202C946.444 31.862 946.324 32.444 946.084 32.948C945.856 33.44 945.538 33.86 945.13 34.208C944.734 34.544 944.278 34.796 943.762 34.964C943.246 35.132 942.706 35.216 942.142 35.216ZM953.129 35.216C952.229 35.216 951.437 35.018 950.753 34.622C950.069 34.214 949.529 33.656 949.133 32.948C948.749 32.24 948.557 31.424 948.557 30.5C948.557 29.576 948.749 28.76 949.133 28.052C949.517 27.344 950.051 26.792 950.735 26.396C951.419 25.988 952.205 25.784 953.093 25.784C953.981 25.784 954.767 25.988 955.451 26.396C956.135 26.792 956.669 27.344 957.053 28.052C957.437 28.76 957.629 29.576 957.629 30.5C957.629 31.424 957.437 32.24 957.053 32.948C956.669 33.656 956.135 34.214 955.451 34.622C954.779 35.018 954.005 35.216 953.129 35.216ZM953.129 33.65C953.669 33.65 954.149 33.518 954.569 33.254C954.989 32.978 955.313 32.606 955.541 32.138C955.781 31.67 955.901 31.124 955.901 30.5C955.901 29.876 955.781 29.33 955.541 28.862C955.313 28.394 954.983 28.028 954.551 27.764C954.119 27.488 953.633 27.35 953.093 27.35C952.541 27.35 952.055 27.488 951.635 27.764C951.215 28.028 950.885 28.394 950.645 28.862C950.405 29.33 950.285 29.876 950.285 30.5C950.285 31.124 950.405 31.67 950.645 32.138C950.885 32.606 951.221 32.978 951.653 33.254C952.085 33.518 952.577 33.65 953.129 33.65ZM959.61 35V26H961.32V35H959.61ZM960.474 24.092C960.198 24.092 959.958 23.99 959.754 23.786C959.55 23.57 959.448 23.324 959.448 23.048C959.448 22.76 959.55 22.52 959.754 22.328C959.958 22.124 960.198 22.022 960.474 22.022C960.762 22.022 961.002 22.124 961.194 22.328C961.398 22.52 961.5 22.76 961.5 23.048C961.5 23.324 961.398 23.57 961.194 23.786C961.002 23.99 960.762 24.092 960.474 24.092ZM963.827 35V26H965.429L965.537 27.656V35H963.827ZM970.055 35V30.392H971.765V35H970.055ZM970.055 30.392C970.055 29.576 969.959 28.958 969.767 28.538C969.587 28.106 969.329 27.806 968.993 27.638C968.669 27.47 968.291 27.38 967.859 27.368C967.127 27.368 966.557 27.626 966.149 28.142C965.741 28.658 965.537 29.384 965.537 30.32H964.799C964.799 29.372 964.937 28.562 965.213 27.89C965.501 27.206 965.903 26.684 966.419 26.324C966.947 25.964 967.571 25.784 968.291 25.784C968.999 25.784 969.611 25.928 970.127 26.216C970.655 26.504 971.057 26.954 971.333 27.566C971.621 28.166 971.765 28.958 971.765 29.942V30.392H970.055ZM978.725 35V22.4H980.543L987.671 32.048V22.4H989.453V35H987.671L980.489 25.262V35H978.725ZM996.319 35.216C995.419 35.216 994.627 35.018 993.943 34.622C993.259 34.214 992.719 33.656 992.323 32.948C991.939 32.24 991.747 31.424 991.747 30.5C991.747 29.576 991.939 28.76 992.323 28.052C992.707 27.344 993.241 26.792 993.925 26.396C994.609 25.988 995.395 25.784 996.283 25.784C997.171 25.784 997.957 25.988 998.641 26.396C999.325 26.792 999.859 27.344 1000.24 28.052C1000.63 28.76 1000.82 29.576 1000.82 30.5C1000.82 31.424 1000.63 32.24 1000.24 32.948C999.859 33.656 999.325 34.214 998.641 34.622C997.969 35.018 997.195 35.216 996.319 35.216ZM996.319 33.65C996.859 33.65 997.339 33.518 997.759 33.254C998.179 32.978 998.503 32.606 998.731 32.138C998.971 31.67 999.091 31.124 999.091 30.5C999.091 29.876 998.971 29.33 998.731 28.862C998.503 28.394 998.173 28.028 997.741 27.764C997.309 27.488 996.823 27.35 996.283 27.35C995.731 27.35 995.245 27.488 994.825 27.764C994.405 28.028 994.075 28.394 993.835 28.862C993.595 29.33 993.475 29.876 993.475 30.5C993.475 31.124 993.595 31.67 993.835 32.138C994.075 32.606 994.411 32.978 994.843 33.254C995.275 33.518 995.767 33.65 996.319 33.65ZM1010.65 35L1013.7 26H1015.41L1012.35 35H1010.65ZM1004.59 35L1007.58 26H1009.12L1006.17 35H1004.59ZM1004.46 35L1001.4 26H1003.13L1006.1 35H1004.46ZM1010.65 35L1007.7 26H1009.27L1012.24 35H1010.65Z" fill="#202020"/>
</svg>
