<svg xmlns="http://www.w3.org/2000/svg" xmlns:xlink="http://www.w3.org/1999/xlink" viewBox="0,0,90,256" width="48px" height="48px"><g fill="none" fill-rule="nonzero" stroke="none" stroke-width="none" stroke-linecap="butt" stroke-linejoin="miter" stroke-miterlimit="10" stroke-dasharray="" stroke-dashoffset="0" font-family="none" font-weight="none" font-size="none" text-anchor="none" style="mix-blend-mode: normal"><g transform="scale(10.66667,10.66667)"><path d="M12,7c-6.07513,0 -11,2.23858 -11,5c0,2.76142 4.92487,5 11,5c6.07513,0 11,-2.23858 11,-5c0,-2.76142 -4.92487,-5 -11,-5z" fill="none" stroke="#367cf2" stroke-width="2"></path><path transform="translate(-4.39888,16.3677) rotate(-59.914)" d="M12,6.972c-6.1751,0 -11.181,2.25111 -11.181,5.028c0,2.77689 5.0059,5.028 11.181,5.028c6.1751,0 11.181,-2.25111 11.181,-5.028c0,-2.77689 -5.0059,-5.028 -11.181,-5.028z" fill="none" stroke="#367cf2" stroke-width="2"></path><path transform="translate(-4.39852,7.63195) rotate(-30.083)" d="M12,0.819c-2.77689,0 -5.028,5.0059 -5.028,11.181c0,6.1751 2.25111,11.181 5.028,11.181c2.77689,0 5.028,-5.0059 5.028,-11.181c0,-6.1751 -2.25111,-11.181 -5.028,-11.181z" fill="none" stroke="#367cf2" stroke-width="2"></path><path d="M12,10c-1.10457,0 -2,0.89543 -2,2c0,1.10457 0.89543,2 2,2c1.10457,0 2,-0.89543 2,-2c0,-1.10457 -0.89543,-2 -2,-2z" fill="#367cf2" stroke="none" stroke-width="1" opacity="0.3"></path><path d="M12,15c-1.654,0 -3,-1.346 -3,-3c0,-1.654 1.346,-3 3,-3c1.654,0 3,1.346 3,3c0,1.654 -1.346,3 -3,3zM12,11c-0.552,0 -1,0.448 -1,1c0,0.552 0.448,1 1,1c0.552,0 1,-0.448 1,-1c0,-0.552 -0.448,-1 -1,-1z" fill="#367cf2" stroke="none" stroke-width="1"></path></g></g></svg>