<svg width="18" height="18" viewBox="0 0 18 18" fill="none" xmlns="http://www.w3.org/2000/svg">
<path d="M17.5888 5.35217C17.5484 4.43555 17.3999 3.80538 17.1873 3.25933C16.968 2.67971 16.6306 2.16078 16.1885 1.72939C15.7566 1.29128 15.2336 0.950857 14.66 0.735228C14.1101 0.522889 13.4824 0.374661 12.5646 0.334247C11.64 0.29041 11.3465 0.280273 9.00136 0.280273C6.65626 0.280273 6.36272 0.29041 5.44153 0.330824C4.52376 0.371238 3.8928 0.519598 3.3462 0.731805C2.76572 0.950857 2.24614 1.28786 1.81421 1.72939C1.37556 2.16078 1.03484 2.68313 0.818805 3.25604C0.606201 3.80538 0.457787 4.43212 0.417322 5.34875C0.37343 6.27221 0.363281 6.56538 0.363281 8.90755C0.363281 11.2497 0.37343 11.5429 0.413895 12.4629C0.45436 13.3796 0.602906 14.0097 0.81551 14.5558C1.03484 15.1354 1.37556 15.6543 1.81421 16.0857C2.24614 16.5238 2.76915 16.8642 3.34277 17.0799C3.8928 17.2922 4.52033 17.4404 5.43823 17.4809C6.3593 17.5214 6.65296 17.5314 8.99806 17.5314C11.3432 17.5314 11.6367 17.5214 12.5579 17.4809C13.4757 17.4404 14.1066 17.2922 14.6532 17.0799C15.814 16.6316 16.7318 15.715 17.1806 14.5558C17.3931 14.0064 17.5416 13.3796 17.5821 12.4629C17.6226 11.5429 17.6327 11.2497 17.6327 8.90755C17.6327 6.56538 17.6293 6.27221 17.5888 5.35217ZM16.0334 12.3955C15.9962 13.238 15.8545 13.693 15.7364 13.9963C15.4462 14.7478 14.849 15.3443 14.0965 15.6342C13.7928 15.7521 13.334 15.8937 12.4937 15.9306C11.5827 15.9712 11.3094 15.9812 9.00479 15.9812C6.70015 15.9812 6.42349 15.9712 5.51573 15.9306C4.67217 15.8937 4.21665 15.7521 3.91297 15.6342C3.5385 15.496 3.19765 15.2769 2.92099 14.9905C2.63418 14.7107 2.41485 14.3737 2.27645 13.9997C2.15836 13.6964 2.01666 13.238 1.97963 12.399C1.93903 11.489 1.92901 11.216 1.92901 8.91426C1.92901 6.61251 1.93903 6.33619 1.97963 5.42971C2.01666 4.5872 2.15836 4.13224 2.27645 3.82894C2.41485 3.45482 2.63418 3.11452 2.92442 2.83807C3.20437 2.55162 3.5418 2.33257 3.91639 2.19448C4.22007 2.07653 4.67903 1.93501 5.51916 1.89789C6.43021 1.85747 6.70358 1.84734 9.00808 1.84734C11.3161 1.84734 11.5894 1.85747 12.4971 1.89789C13.3407 1.93501 13.7962 2.07653 14.0999 2.19448C14.4744 2.33257 14.8152 2.55162 15.0919 2.83807C15.3787 3.11781 15.598 3.45482 15.7364 3.82894C15.8545 4.13224 15.9962 4.59049 16.0334 5.42971C16.0738 6.33961 16.084 6.61251 16.084 8.91426C16.084 11.216 16.0738 11.4856 16.0334 12.3955Z" fill="#F91A68"/>
<path d="M14.6519 4.30044C14.6519 4.87177 14.1881 5.33501 13.6159 5.33501C13.0439 5.33501 12.5801 4.87177 12.5801 4.30044C12.5801 3.72898 13.0439 3.26587 13.6159 3.26587C14.1881 3.26587 14.6519 3.72898 14.6519 4.30044Z" fill="#F91A68"/>
<path d="M9.08948 4.59277C6.63986 4.59277 4.65234 6.57767 4.65234 9.02436C4.65234 11.4711 6.63986 13.456 9.08948 13.456C11.5392 13.456 13.5266 11.4711 13.5266 9.02436C13.5266 6.57767 11.5392 4.59277 9.08948 4.59277ZM9.08948 11.899C7.50029 11.899 6.21122 10.6117 6.21122 9.02436C6.21122 7.43703 7.50029 6.1497 9.08948 6.1497C10.6788 6.1497 11.9677 7.43703 11.9677 9.02436C11.9677 10.6117 10.6788 11.899 9.08948 11.899Z" fill="#F91A68"/>
</svg>
