<svg width="175" height="48" viewBox="0 0 175 48" fill="none" xmlns="http://www.w3.org/2000/svg">
<rect x="0.5" y="0.5" width="174" height="47" rx="9.5" fill="white" stroke="black"/>
<path d="M52.142 29.216C51.65 29.216 51.206 29.144 50.81 29C50.426 28.856 50.084 28.67 49.784 28.442C49.484 28.202 49.232 27.938 49.028 27.65C48.824 27.35 48.662 27.05 48.542 26.75L49.964 26.03C50.192 26.498 50.48 26.876 50.828 27.164C51.188 27.452 51.626 27.596 52.142 27.596C52.562 27.596 52.964 27.5 53.348 27.308C53.732 27.116 54.05 26.798 54.302 26.354C54.554 25.898 54.68 25.304 54.68 24.572V16.4H56.444V25.202C56.444 25.862 56.324 26.444 56.084 26.948C55.856 27.44 55.538 27.86 55.13 28.208C54.734 28.544 54.278 28.796 53.762 28.964C53.246 29.132 52.706 29.216 52.142 29.216ZM63.129 29.216C62.229 29.216 61.437 29.018 60.753 28.622C60.069 28.214 59.529 27.656 59.133 26.948C58.749 26.24 58.557 25.424 58.557 24.5C58.557 23.576 58.749 22.76 59.133 22.052C59.517 21.344 60.051 20.792 60.735 20.396C61.419 19.988 62.205 19.784 63.093 19.784C63.981 19.784 64.767 19.988 65.451 20.396C66.135 20.792 66.669 21.344 67.053 22.052C67.437 22.76 67.629 23.576 67.629 24.5C67.629 25.424 67.437 26.24 67.053 26.948C66.669 27.656 66.135 28.214 65.451 28.622C64.779 29.018 64.005 29.216 63.129 29.216ZM63.129 27.65C63.669 27.65 64.149 27.518 64.569 27.254C64.989 26.978 65.313 26.606 65.541 26.138C65.781 25.67 65.901 25.124 65.901 24.5C65.901 23.876 65.781 23.33 65.541 22.862C65.313 22.394 64.983 22.028 64.551 21.764C64.119 21.488 63.633 21.35 63.093 21.35C62.541 21.35 62.055 21.488 61.635 21.764C61.215 22.028 60.885 22.394 60.645 22.862C60.405 23.33 60.285 23.876 60.285 24.5C60.285 25.124 60.405 25.67 60.645 26.138C60.885 26.606 61.221 26.978 61.653 27.254C62.085 27.518 62.577 27.65 63.129 27.65ZM69.6105 29V20H71.3205V29H69.6105ZM70.4745 18.092C70.1985 18.092 69.9585 17.99 69.7545 17.786C69.5505 17.57 69.4485 17.324 69.4485 17.048C69.4485 16.76 69.5505 16.52 69.7545 16.328C69.9585 16.124 70.1985 16.022 70.4745 16.022C70.7625 16.022 71.0025 16.124 71.1945 16.328C71.3985 16.52 71.5005 16.76 71.5005 17.048C71.5005 17.324 71.3985 17.57 71.1945 17.786C71.0025 17.99 70.7625 18.092 70.4745 18.092ZM73.8267 29V20H75.4287L75.5367 21.656V29H73.8267ZM80.0547 29V24.392H81.7647V29H80.0547ZM80.0547 24.392C80.0547 23.576 79.9587 22.958 79.7667 22.538C79.5867 22.106 79.3287 21.806 78.9927 21.638C78.6687 21.47 78.2907 21.38 77.8587 21.368C77.1267 21.368 76.5567 21.626 76.1487 22.142C75.7407 22.658 75.5367 23.384 75.5367 24.32H74.7987C74.7987 23.372 74.9367 22.562 75.2127 21.89C75.5007 21.206 75.9027 20.684 76.4187 20.324C76.9467 19.964 77.5707 19.784 78.2907 19.784C78.9987 19.784 79.6107 19.928 80.1267 20.216C80.6547 20.504 81.0567 20.954 81.3327 21.566C81.6207 22.166 81.7647 22.958 81.7647 23.942V24.392H80.0547ZM88.725 29V16.4H90.543L97.671 26.048V16.4H99.453V29H97.671L90.489 19.262V29H88.725ZM106.319 29.216C105.419 29.216 104.627 29.018 103.943 28.622C103.259 28.214 102.719 27.656 102.323 26.948C101.939 26.24 101.747 25.424 101.747 24.5C101.747 23.576 101.939 22.76 102.323 22.052C102.707 21.344 103.241 20.792 103.925 20.396C104.609 19.988 105.395 19.784 106.283 19.784C107.171 19.784 107.957 19.988 108.641 20.396C109.325 20.792 109.859 21.344 110.243 22.052C110.627 22.76 110.819 23.576 110.819 24.5C110.819 25.424 110.627 26.24 110.243 26.948C109.859 27.656 109.325 28.214 108.641 28.622C107.969 29.018 107.195 29.216 106.319 29.216ZM106.319 27.65C106.859 27.65 107.339 27.518 107.759 27.254C108.179 26.978 108.503 26.606 108.731 26.138C108.971 25.67 109.091 25.124 109.091 24.5C109.091 23.876 108.971 23.33 108.731 22.862C108.503 22.394 108.173 22.028 107.741 21.764C107.309 21.488 106.823 21.35 106.283 21.35C105.731 21.35 105.245 21.488 104.825 21.764C104.405 22.028 104.075 22.394 103.835 22.862C103.595 23.33 103.475 23.876 103.475 24.5C103.475 25.124 103.595 25.67 103.835 26.138C104.075 26.606 104.411 26.978 104.843 27.254C105.275 27.518 105.767 27.65 106.319 27.65ZM120.655 29L123.697 20H125.407L122.347 29H120.655ZM114.589 29L117.577 20H119.125L116.173 29H114.589ZM114.463 29L111.403 20H113.131L116.101 29H114.463ZM120.655 29L117.703 20H119.269L122.239 29H120.655Z" fill="#202020"/>
</svg>
