<svg width="19" height="18" viewBox="0 0 19 18" fill="none" xmlns="http://www.w3.org/2000/svg">
<path d="M2.70588 0.211914C1.37207 0.211914 0.5 1.08667 0.5 2.2364C0.5 3.36075 1.34609 4.26045 2.6547 4.26045H2.68001C4.03991 4.26045 4.88622 3.36075 4.88622 2.2364C4.8608 1.08667 4.03991 0.211914 2.70588 0.211914Z" fill="#F91A68"/>
<path d="M0.730469 5.74707H4.62975V17.4636H0.730469V5.74707Z" fill="#F91A68"/>
<path d="M14.1673 5.47168C12.0638 5.47168 10.6533 7.44583 10.6533 7.44583V5.74667H6.75391V17.4632H10.6531V10.9202C10.6531 10.5699 10.6785 10.2202 10.7815 9.96973C11.0634 9.27029 11.7049 8.54567 12.7821 8.54567C14.1931 8.54567 14.7574 9.62012 14.7574 11.1952V17.4632H18.6564V10.7451C18.6564 7.14634 16.7326 5.47168 14.1673 5.47168Z" fill="#F91A68"/>
</svg>
