<svg width="16" height="16" viewBox="0 0 16 16" fill="none" xmlns="http://www.w3.org/2000/svg">
<mask id="mask0_59_275" style="mask-type:alpha" maskUnits="userSpaceOnUse" x="0" y="0" width="16" height="16">
<rect width="16" height="16" fill="#D9D9D9"/>
</mask>
<g mask="url(#mask0_59_275)">
<path d="M3.33327 14.0001C2.96661 14.0001 2.65272 13.8695 2.39161 13.6084C2.13049 13.3473 1.99994 13.0334 1.99994 12.6667V10.6667C1.99994 10.4778 2.06383 10.3195 2.19161 10.1917C2.31938 10.064 2.47772 10.0001 2.66661 10.0001C2.85549 10.0001 3.01383 10.064 3.14161 10.1917C3.26938 10.3195 3.33327 10.4778 3.33327 10.6667V12.6667H12.6666V3.33339H3.33327V5.33339C3.33327 5.52228 3.26938 5.68062 3.14161 5.80839C3.01383 5.93617 2.85549 6.00006 2.66661 6.00006C2.47772 6.00006 2.31938 5.93617 2.19161 5.80839C2.06383 5.68062 1.99994 5.52228 1.99994 5.33339V3.33339C1.99994 2.96673 2.13049 2.65284 2.39161 2.39173C2.65272 2.13062 2.96661 2.00006 3.33327 2.00006H12.6666C13.0333 2.00006 13.3472 2.13062 13.6083 2.39173C13.8694 2.65284 13.9999 2.96673 13.9999 3.33339V12.6667C13.9999 13.0334 13.8694 13.3473 13.6083 13.6084C13.3472 13.8695 13.0333 14.0001 12.6666 14.0001H3.33327ZM7.76661 8.66673H2.66661C2.47772 8.66673 2.31938 8.60284 2.19161 8.47506C2.06383 8.34728 1.99994 8.18895 1.99994 8.00006C1.99994 7.81117 2.06383 7.65284 2.19161 7.52506C2.31938 7.39728 2.47772 7.33339 2.66661 7.33339H7.76661L6.53327 6.10006C6.39994 5.96673 6.33605 5.81117 6.34161 5.63339C6.34716 5.45562 6.41105 5.30006 6.53327 5.16673C6.66661 5.03339 6.82494 4.96395 7.00827 4.95839C7.19161 4.95284 7.34994 5.01673 7.48327 5.15006L9.86661 7.53339C9.93327 7.60006 9.98049 7.67228 10.0083 7.75006C10.036 7.82784 10.0499 7.91117 10.0499 8.00006C10.0499 8.08895 10.036 8.17228 10.0083 8.25006C9.98049 8.32784 9.93327 8.40006 9.86661 8.46673L7.48327 10.8501C7.34994 10.9834 7.19161 11.0473 7.00827 11.0417C6.82494 11.0362 6.66661 10.9667 6.53327 10.8334C6.41105 10.7001 6.34716 10.5445 6.34161 10.3667C6.33605 10.189 6.39994 10.0334 6.53327 9.90006L7.76661 8.66673Z" fill="#F91A68"/>
</g>
</svg>
