<svg width="42" height="65" viewBox="0 0 42 65" fill="none" xmlns="http://www.w3.org/2000/svg">
<g opacity="0.4">
<path d="M28.5164 32.7068C28.5164 41.1062 27.5742 48.6923 26.061 54.163C25.3034 56.9019 24.4104 59.0821 23.4401 60.5659C22.4561 62.0706 21.4759 62.739 20.5713 62.739C19.6667 62.739 18.6866 62.0706 17.7026 60.5659C16.7322 59.0821 15.8392 56.9019 15.0817 54.163C13.5685 48.6923 12.6263 41.1062 12.6263 32.7068C12.6263 24.3073 13.5685 16.7212 15.0817 11.2505C15.8392 8.51166 16.7322 6.33144 17.7026 4.84759C18.6866 3.34292 19.6667 2.67456 20.5713 2.67456C21.4759 2.67456 22.4561 3.34292 23.4401 4.84759C24.4104 6.33144 25.3034 8.51166 26.061 11.2505C27.5742 16.7212 28.5164 24.3073 28.5164 32.7068Z" stroke="#D9D9D9"/>
<path d="M27.6824 34.3527C25.9424 42.5699 23.449 49.7963 20.8354 54.8348C19.5269 57.3573 18.2016 59.3052 16.9449 60.5559C15.6706 61.8241 14.5732 62.2749 13.6882 62.0875C12.8033 61.9001 11.9828 61.0432 11.3319 59.3673C10.69 57.7146 10.268 55.3967 10.0942 52.5603C9.74721 46.8948 10.3969 39.2781 12.137 31.0609C13.877 22.8436 16.3703 15.6173 18.984 10.5787C20.2925 8.05621 21.6178 6.10828 22.8745 4.85763C24.1488 3.58945 25.2462 3.13864 26.1311 3.32603C27.0161 3.51343 27.8366 4.37034 28.4875 6.04621C29.1294 7.69889 29.5514 10.0168 29.7251 12.8532C30.0722 18.5187 29.4224 26.1354 27.6824 34.3527Z" stroke="#D9D9D9"/>
<path d="M27.6824 29.9738C25.9424 21.7565 23.449 14.5302 20.8354 9.49163C19.5269 6.96911 18.2016 5.02118 16.9449 3.77054C15.6706 2.50235 14.5732 2.05154 13.6882 2.23893C12.8033 2.42633 11.9828 3.28324 11.3319 4.95911C10.69 6.61179 10.268 8.92971 10.0942 11.7661C9.74721 17.4316 10.3969 25.0483 12.137 33.2656C13.877 41.4828 16.3703 48.7092 18.984 53.7477C20.2925 56.2702 21.6178 58.2181 22.8745 59.4688C24.1488 60.737 25.2462 61.1878 26.1311 61.0004C27.0161 60.813 27.8366 59.9561 28.4875 58.2802C29.1294 56.6275 29.5514 54.3096 29.7251 51.4732C30.0722 45.8078 29.4224 38.191 27.6824 29.9738Z" stroke="#D9D9D9"/>
<path d="M27.7435 28.2668C24.199 20.6518 20.1436 14.1718 16.4632 9.85065C14.6206 7.68727 12.891 6.08751 11.3851 5.15172C9.85808 4.20281 8.68742 4.01049 7.86731 4.39222C7.0472 4.77394 6.44061 5.7935 6.18349 7.57285C5.92992 9.32759 6.04034 11.681 6.5093 14.4838C7.446 20.082 9.79299 27.3572 13.3374 34.9722C16.8819 42.5872 20.9374 49.0671 24.6177 53.3883C26.4603 55.5517 28.1899 57.1515 29.6958 58.0873C31.2228 59.0362 32.3935 59.2285 33.2136 58.8468C34.0337 58.465 34.6403 57.4455 34.8974 55.6661C35.151 53.9114 35.0406 51.558 34.5716 48.7552C33.6349 43.157 31.2879 35.8818 27.7435 28.2668Z" stroke="#D9D9D9"/>
<path d="M27.7435 34.597C24.199 42.212 20.1436 48.6919 16.4632 53.0131C14.6206 55.1765 12.891 56.7763 11.3851 57.712C9.85808 58.661 8.68742 58.8533 7.86731 58.4716C7.0472 58.0898 6.44061 57.0703 6.18349 55.2909C5.92992 53.5362 6.04034 51.1827 6.5093 48.38C7.446 42.7817 9.79299 35.5065 13.3374 27.8916C16.8819 20.2766 20.9374 13.7966 24.6177 9.47544C26.4603 7.31205 28.1899 5.71229 29.6958 4.77651C31.2228 3.82759 32.3935 3.63527 33.2136 4.017C34.0337 4.39873 34.6403 5.41828 34.8974 7.19764C35.151 8.95238 35.0406 11.3058 34.5716 14.1086C33.6349 19.7068 31.2879 26.982 27.7435 34.597Z" stroke="#D9D9D9"/>
</g>
</svg>
