<svg width="115" height="60" viewBox="0 0 115 60" fill="none" xmlns="http://www.w3.org/2000/svg">
<path d="M2 46.9993C4.10802 54.1097 48.9616 26.4073 52.4103 19.837C54.082 16.6522 58.8974 8.59007 56.8394 4.82984C53.8221 -0.682962 43.1916 3.16367 39.687 5.44099C14.2578 21.965 48.2843 28.0571 63.6842 31.1093C66.547 31.6768 106.282 36.8328 98.6332 42.1101C88.4327 49.1478 73.2209 49.0802 60.9463 50.3946C58.3326 50.6744 51.1039 51.6568 49.1087 49.7155C41.4495 42.2632 39.285 27.4803 34.7748 18.411C33.6923 16.2343 32.1164 9.69912 31.3121 11.9599C28.9744 18.5309 40.2022 30.6982 44.0355 35.4553C53.8294 47.6098 69.2131 58 87.3594 58C92.3986 58 91.1616 52.2014 87.5204 50.6662C82.866 48.7038 77.1034 47.6753 71.9786 47.1351C70.1547 46.9428 63.5528 47.8863 62.4763 46.2523C59.027 41.0168 108.236 34.2158 112.967 32.3316C113.87 31.972 95.868 31.8109 92.6742 31.0414C90.137 30.4302 91.8689 11.8343 91.8689 9.37952C91.8689 8.97041 91.8689 4.40672 91.8689 6.93492C91.8689 21.8889 102.618 31.9539 110.712 44.5547" stroke="#F4F4F4" stroke-width="3" stroke-linecap="round"/>
</svg>
