<svg width="50" height="50" viewBox="0 0 50 50" fill="none" xmlns="http://www.w3.org/2000/svg">
<path d="M25 0L26.5284 8.01864L29.4639 0.40176L29.5359 8.56443L33.7844 1.59413L32.3977 9.63848L37.8225 3.53878L35.0217 11.2063L41.4485 6.17321L37.3237 13.2174L44.5458 9.41276L39.2295 15.6072L47.0149 13.1533L40.6779 18.2989L48.7764 17.2746L41.6225 21.206L49.7737 21.6442L42.0328 24.2351L49.9748 26.1216L41.8957 27.2887L49.3732 30.563L41.2155 30.2687L47.9882 34.8256L40.0142 33.0795L45.8643 38.7724L38.3302 35.6305L43.0699 42.2766L36.2179 37.8399L39.6946 45.2254L33.7449 39.6366L35.8471 47.5242L30.9909 40.9628L31.6509 49.0991L28.0444 41.776L27.241 49.8994L25 42.05L22.759 49.8994L21.9556 41.776L18.3491 49.0991L19.0091 40.9628L14.1529 47.5242L16.2551 39.6366L10.3054 45.2254L13.7821 37.8399L6.93013 42.2766L11.6698 35.6305L4.13567 38.7724L9.98585 33.0795L2.01181 34.8256L8.78449 30.2687L0.626802 30.563L8.10431 27.2887L0.0251732 26.1216L7.96717 24.2351L0.226255 21.6442L8.37748 21.206L1.22359 17.2746L9.32205 18.2989L2.98511 13.1533L10.7705 15.6072L5.45421 9.41276L12.6763 13.2174L8.55153 6.17321L14.9783 11.2063L12.1775 3.53878L17.6023 9.63848L16.2156 1.59413L20.4641 8.56443L20.5361 0.40176L23.4716 8.01864L25 0Z" fill="#F91A68"/>
</svg>
