<svg width="102" height="84" viewBox="0 0 102 84" fill="none" xmlns="http://www.w3.org/2000/svg">
<path d="M3.984 59V25.4H14.544C17.84 25.4 20.752 26.12 23.28 27.56C25.84 28.968 27.84 30.936 29.28 33.464C30.752 35.992 31.488 38.904 31.488 42.2C31.488 45.464 30.752 48.36 29.28 50.888C27.84 53.416 25.84 55.4 23.28 56.84C20.752 58.28 17.84 59 14.544 59H3.984ZM9.552 53.816H14.544C16.112 53.816 17.584 53.528 18.96 52.952C20.336 52.344 21.536 51.512 22.56 50.456C23.584 49.4 24.384 48.168 24.96 46.76C25.536 45.352 25.824 43.832 25.824 42.2C25.824 40.568 25.536 39.048 24.96 37.64C24.384 36.232 23.584 35 22.56 33.944C21.536 32.888 20.336 32.072 18.96 31.496C17.584 30.888 16.112 30.584 14.544 30.584H9.552V53.816ZM37.359 59V25.4H58.047V30.488H42.927V39.416H56.271V44.408H42.927V53.912H58.191V59H37.359ZM76.2795 59L89.4315 25.4H95.3835L81.7995 59H76.2795ZM75.7035 59L62.1195 25.4H68.0235L81.1755 59H75.7035Z" fill="white"/>
<circle cx="97" cy="54" r="5" fill="#F91A68"/>
</svg>
